<svg width="76" height="75" viewBox="0 0 76 75" fill="none" xmlns="http://www.w3.org/2000/svg">
<path d="M31.5156 37.502C29.849 37.502 28.4557 36.8509 27.3359 35.5488C26.2161 34.2467 25.7604 32.7103 25.9688 30.9395L27.0625 24.2988C27.4271 21.6426 28.638 19.429 30.6953 17.6582C32.7526 15.8874 35.1875 15.002 38 15.002C40.8125 15.002 43.2474 15.8743 45.3047 17.6191C47.362 19.3639 48.5729 21.5645 48.9375 24.2207L50.0312 30.9395C50.2396 32.7103 49.7839 34.2467 48.6641 35.5488C47.5443 36.8509 46.151 37.502 44.4844 37.502H31.5156ZM15.5 60.002V52.502C15.5 51.304 15.8255 50.1712 16.4766 49.1035C17.1276 48.0358 18.026 47.1374 19.1719 46.4082C22.0365 44.7415 25.0703 43.4655 28.2734 42.5801C31.4766 41.6947 34.7188 41.252 38 41.252C41.2812 41.252 44.5234 41.6947 47.7266 42.5801C50.9297 43.4655 53.9635 44.7415 56.8281 46.4082C57.974 47.0853 58.8724 47.9707 59.5234 49.0645C60.1745 50.1582 60.5 51.304 60.5 52.502V60.002H15.5Z" fill="#E4DBD2"/>
</svg>
