<svg width="76" height="75" viewBox="0 0 76 75" fill="none" xmlns="http://www.w3.org/2000/svg">
<path d="M38 67.502C33.8854 67.502 30.0052 66.7207 26.3594 65.1582C22.7135 63.5957 19.5234 61.4473 16.7891 58.7129C14.0547 55.9785 11.9062 52.7884 10.3438 49.1426C8.78125 45.4967 8 41.6165 8 37.502C8 33.3353 8.78125 29.4421 10.3438 25.8223C11.9062 22.2025 14.0547 19.0254 16.7891 16.291C19.5234 13.5566 22.7135 11.4082 26.3594 9.8457C30.0052 8.2832 33.8854 7.50195 38 7.50195C42.1667 7.50195 46.0599 8.2832 49.6797 9.8457C53.2995 11.4082 56.4766 13.5566 59.2109 16.291C61.9453 19.0254 64.0938 22.2025 65.6562 25.8223C67.2188 29.4421 68 33.3353 68 37.502C68 41.6165 67.2188 45.4967 65.6562 49.1426C64.0938 52.7884 61.9453 55.9785 59.2109 58.7129C56.4766 61.4473 53.2995 63.5957 49.6797 65.1582C46.0599 66.7207 42.1667 67.502 38 67.502ZM35.1875 61.7207V52.1895C32.1667 51.6165 29.5755 50.2493 27.4141 48.0879C25.2526 45.9264 23.8854 43.3353 23.3125 40.3145H13.7812C14.4062 45.9915 16.7109 50.8223 20.6953 54.8066C24.6797 58.791 29.5104 61.0957 35.1875 61.7207ZM40.8125 61.7207C46.4896 61.0957 51.3203 58.791 55.3047 54.8066C59.2891 50.8223 61.5938 45.9915 62.2188 40.3145H52.6875C52.1146 43.3353 50.7474 45.9264 48.5859 48.0879C46.4245 50.2493 43.8333 51.6165 40.8125 52.1895V61.7207ZM13.7812 34.6895H23L31.4375 26.252H44.5625L53 34.6895H62.2188C61.4896 28.5957 58.8464 23.4785 54.2891 19.3379C49.7318 15.1973 44.3021 13.127 38 13.127C31.6979 13.127 26.2682 15.1973 21.7109 19.3379C17.1536 23.4785 14.5104 28.5957 13.7812 34.6895Z" fill="#E4DBD2"/>
</svg>
