<svg width="44" height="44" viewBox="0 0 44 44" fill="none" xmlns="http://www.w3.org/2000/svg">
<path d="M26 2C30 2 32 4.059 32 8.17699V22.5492C32 26.606 29.18 28.1758 25.72 26.0556L23.08 24.4247C22.48 24.0578 21.52 24.0578 20.92 24.4247L18.28 26.0556C14.82 28.1758 12 26.606 12 22.5492V8.17699C12 4.059 14 2 18 2H26Z" stroke="white" stroke-width="1.5" stroke-linecap="round" stroke-linejoin="round"/>
<path d="M11.64 8.05986C4.82 9.19718 2 13.3873 2 21.8474V27.8932C2 37.9695 6 42 16 42H28C38 42 42 37.9695 42 27.8932V21.8474C42 13.2477 39.08 9.03756 32 8" stroke="white" stroke-width="1.5" stroke-linecap="round" stroke-linejoin="round"/>
</svg>
