<svg width="18" height="18" viewBox="0 0 18 18" fill="none" xmlns="http://www.w3.org/2000/svg">
<path d="M0.75 0.75H2.2187C3.13031 0.75 3.84778 1.54103 3.77181 2.45114L3.07122 10.9228C2.95305 12.3092 4.04191 13.5 5.4262 13.5H14.4157C15.6311 13.5 16.6947 12.4963 16.7875 11.28L17.2433 4.90077C17.3446 3.48883 16.2811 2.34056 14.8715 2.34056H3.97439" stroke="white" stroke-width="1.4" stroke-miterlimit="10" stroke-linecap="round" stroke-linejoin="round"/>
<path d="M12 17.25C12.4142 17.25 12.75 16.9142 12.75 16.5C12.75 16.0858 12.4142 15.75 12 15.75C11.5858 15.75 11.25 16.0858 11.25 16.5C11.25 16.9142 11.5858 17.25 12 17.25Z" stroke="white" stroke-width="1.4" stroke-miterlimit="10" stroke-linecap="round" stroke-linejoin="round"/>
<path d="M6 17.25C6.41421 17.25 6.75 16.9142 6.75 16.5C6.75 16.0858 6.41421 15.75 6 15.75C5.58579 15.75 5.25 16.0858 5.25 16.5C5.25 16.9142 5.58579 17.25 6 17.25Z" stroke="white" stroke-width="1.4" stroke-miterlimit="10" stroke-linecap="round" stroke-linejoin="round"/>
<path d="M6.75 5.25H16.5" stroke="white" stroke-width="1.4" stroke-miterlimit="10" stroke-linecap="round" stroke-linejoin="round"/>
</svg>
