<svg width="67" height="42" viewBox="0 0 67 42" fill="none" xmlns="http://www.w3.org/2000/svg">
<path d="M9.74584 22.3557V12.3857M18.3597 36.3689H11.4614C10.5137 36.3689 9.74584 35.601 9.74584 34.6652V30.0821M18.3597 36.3689C18.3597 33.8134 20.4352 31.7378 22.9906 31.7378C25.546 31.7378 27.6214 33.8134 27.6214 36.3689M18.3597 36.3689C18.3597 38.9244 20.4352 40.9999 22.9906 40.9999C25.546 41.0119 27.6214 38.9364 27.6214 36.3689M48.1364 36.3689H27.6214M9.74584 4.85124V2.70367C9.74584 1.75586 10.5017 1 11.4494 1C17.388 1 37.1831 1 43.1216 1C44.0694 1 44.8252 1.76785 44.8252 2.70367V18.8404C44.8252 22.6796 47.9324 25.787 51.7715 25.787H65.964H66M66 25.787V31.5219C66 34.1973 63.8285 36.3809 61.1412 36.3809H57.3861M66 25.787C66 15.745 54.9267 7.55069 44.8252 7.15477M60.0495 29.0984V29.2183C60.0495 30.2501 60.8773 31.078 61.909 31.078H62.7008M24.1663 8.46251H1M29.613 17.5327H15.0965M26.8896 26.003H5.11499M57.4101 36.3689C57.4101 33.8134 55.3346 31.7378 52.7792 31.7378C50.2239 31.7378 48.1484 33.8134 48.1484 36.3689C48.1484 38.9244 50.2239 40.9999 52.7792 40.9999C55.3346 40.9999 57.4101 38.9364 57.4101 36.3689Z" stroke="black" stroke-width="1.8" stroke-miterlimit="10" stroke-linecap="round" stroke-linejoin="round"/>
</svg>
