<svg width="48" height="49" viewBox="0 0 48 49" fill="none" xmlns="http://www.w3.org/2000/svg">
<path d="M23.7727 20.4906C22.1131 20.4906 20.499 21.3556 19.7487 23.5408C18.7484 26.4545 20.4535 28.5031 22.5678 29.2088C24.682 29.9372 27.2737 29.3681 28.274 26.4545C29.2743 23.5408 27.5693 21.4921 25.455 20.7865C24.9094 20.6044 24.341 20.4906 23.7727 20.4906ZM24.1819 31.4623C23.4089 31.4623 22.636 31.3257 21.9312 31.0753C18.8849 30.0282 16.5205 26.887 17.8846 22.9034C19.2486 18.9199 23.0452 17.8956 26.0915 18.9199C29.1379 19.967 31.5022 23.1083 30.1155 27.0918C29.0697 30.1421 26.6371 31.4623 24.1819 31.4623ZM18.2028 38.2229C18.3165 38.2229 18.612 38.3595 19.0213 38.4961C19.6578 38.7465 20.7263 39.179 21.2492 38.9513C21.3174 38.9286 21.4765 38.8375 21.6129 38.4506L22.0903 37.062C22.545 35.7645 23.7954 35.6962 24.6365 35.6507C24.8412 35.6507 25.0458 35.6279 25.2277 35.6052C26.7736 35.4231 27.3646 36.6523 27.7056 37.4035C27.9784 37.9953 28.1831 38.3595 28.5468 38.4961C28.7742 38.5644 29.0242 38.5644 29.2288 38.4506C29.297 38.3823 29.5926 38.2457 29.979 38.0863C30.5701 37.8359 31.6841 37.3579 31.8887 36.8116C31.9114 36.7433 31.9796 36.5612 31.7978 36.197L31.1385 34.8768C30.5474 33.6476 31.3886 32.7143 31.9569 32.0997C32.0933 31.9403 32.2297 31.8038 32.3661 31.6444C32.889 30.9843 33.8211 30.6656 34.5941 30.8932C34.7305 30.916 34.8669 30.9843 35.026 31.0298C35.4125 31.1892 36.3446 31.5534 36.822 31.3257C36.9129 31.2802 37.0721 31.1664 37.1857 30.825C37.1857 30.7111 37.2994 30.4152 37.4585 30.0055C37.7086 29.3681 38.1406 28.2983 37.9132 27.7747C37.8905 27.7064 37.7996 27.5471 37.4131 27.4105C37.3676 27.3877 37.3221 27.365 37.2767 27.3422C37.2085 27.2967 37.0039 27.2512 36.8447 27.2056C36.14 27.0008 34.685 26.591 34.6623 24.9293C34.6623 24.7245 34.6395 24.5424 34.6395 24.3375C34.5713 23.518 34.4804 22.2661 35.6171 21.6515C35.7308 21.5832 35.8672 21.5149 36.049 21.4466C36.4355 21.2645 37.3449 20.8775 37.5268 20.3767C37.5495 20.3085 37.6177 20.1263 37.4358 19.7621L36.9584 18.8061C36.2309 17.281 36.1854 17.281 35.8444 17.1672C35.4579 17.0306 35.0942 17.2127 34.5258 17.5086C33.7984 17.8956 32.5935 18.5329 31.4568 17.3948C31.2976 17.2355 31.1385 17.0989 30.9793 16.9623C30.3655 16.4387 29.4334 15.6193 29.8199 14.3901C29.8426 14.2535 29.8881 14.1397 29.9563 13.9576C30.1154 13.5706 30.4792 12.6373 30.2519 12.1365C30.2064 12.0455 30.0927 11.8862 29.7517 11.7723C29.638 11.7268 29.3198 11.6585 28.9333 11.4992C28.2967 11.2488 27.2282 10.8163 26.7054 11.0439C26.6599 11.0667 26.478 11.1577 26.3416 11.5447C26.2507 11.7496 26.1825 11.9544 26.137 12.1138C25.9324 12.8194 25.5232 14.2763 23.8636 14.299C23.6817 14.299 23.4999 14.3218 23.318 14.3446C22.5223 14.4128 21.2265 14.5267 20.6126 13.343C20.5444 13.2292 20.4762 13.0926 20.408 12.9332C20.2262 12.5463 19.8397 11.613 19.3395 11.4309C19.2259 11.3854 19.0667 11.3626 18.7257 11.5219L17.7709 11.9772C16.2477 12.7056 16.225 12.7511 16.1113 13.0926C16.0204 13.3202 16.0431 13.5706 16.1568 13.7755L16.8161 15.1185C17.4072 16.3477 16.566 17.281 15.9976 17.8956C15.8612 18.0549 15.7248 18.1915 15.5884 18.3508C15.0655 19.011 14.1334 19.3296 13.3605 19.1248C13.2241 19.102 13.0877 19.0337 12.9285 18.9654C12.5421 18.8061 11.61 18.4419 11.1098 18.6695C11.0189 18.715 10.8597 18.8289 10.7461 19.1703C10.7461 19.2841 10.6324 19.58 10.4733 19.9898C10.2232 20.6271 9.79125 21.697 10.0186 22.2205C10.0413 22.2888 10.1323 22.4482 10.5187 22.5848L11.9055 23.0628C13.2013 23.518 13.2696 24.77 13.2923 25.5895C13.315 25.7943 13.315 25.9992 13.3378 26.2041C13.4287 27.0463 12.9967 27.9341 12.3147 28.321C12.2011 28.3893 12.0646 28.4576 11.86 28.5487C11.4736 28.708 10.5642 29.095 10.3823 29.5958C10.3596 29.664 10.2914 29.8461 10.4733 30.2331C10.5415 30.3014 10.6779 30.6201 10.8597 31.0071C11.1325 31.6444 11.5872 32.7143 12.1328 32.9191C12.201 32.9419 12.3829 33.0102 12.7467 32.8281L13.2241 32.6005C14.8837 31.781 15.3156 31.7127 16.6342 32.8281C16.8161 32.9874 17.0434 33.1695 17.3389 33.3972C17.9982 33.9207 18.3165 34.854 18.0892 35.6052C18.0664 35.7418 17.9982 35.8783 17.93 36.0377C17.7709 36.4246 17.4071 37.3579 17.6345 37.8587C17.7482 37.9725 17.8391 38.1091 18.2028 38.2229ZM20.8627 41C19.9306 41 18.9758 40.613 18.271 40.3399C18.0437 40.2488 17.8391 40.1578 17.7254 40.135C16.566 39.748 16.1113 39.1334 15.9067 38.6782C15.3384 37.4262 15.884 36.0149 16.1568 35.332C16.1568 35.2637 16.225 35.1272 16.2477 35.0589C16.2477 35.1044 16.2022 34.9678 16.1568 34.9451C15.8612 34.6947 15.6111 34.4898 15.4065 34.3304C15.2019 34.1711 14.9973 33.9662 14.9064 33.9435C14.9291 33.989 14.5427 34.1939 14.1562 34.376L13.6788 34.6264C12.7467 35.0816 11.9737 34.9906 11.519 34.8085C10.2005 34.3077 9.56391 32.8281 9.13196 31.8265C9.04102 31.5989 8.95009 31.4168 8.88189 31.303C8.33628 30.2104 8.44993 29.4364 8.60907 28.9584C9.08648 27.6837 10.4733 27.0918 11.1553 26.7959L11.3371 26.7048L11.4281 26.5C11.4054 26.2496 11.3826 25.9992 11.3826 25.7488C11.3599 25.4756 11.3372 25.0432 11.269 24.9293L9.90492 24.4741C8.90463 24.1326 8.44993 23.518 8.24533 23.0628C7.65424 21.788 8.26807 20.2857 8.65455 19.2841C8.74549 19.0565 8.83643 18.8516 8.85916 18.7378C9.24564 17.5769 9.8367 17.1216 10.3141 16.9168C11.5645 16.3477 12.974 16.894 13.6788 17.1672C13.7697 17.1672 13.8834 17.2355 13.9516 17.2582C13.9516 17.2355 14.0425 17.1899 14.0652 17.1672C14.2244 16.9623 14.4063 16.7802 14.5654 16.5981C14.7473 16.3932 15.0201 16.0973 15.0655 15.9607L14.4062 14.686C14.0652 14.0031 14.0198 13.2292 14.2698 12.5008C14.6791 11.3398 15.3384 11.0212 16.9297 10.2472L17.8846 9.79196C18.8167 9.3367 19.5669 9.45052 20.0443 9.60986C21.3401 10.0879 21.9539 11.4764 22.2495 12.1593L22.3404 12.3414C22.4768 12.4552 22.9315 12.4097 23.2043 12.3869C23.4317 12.3642 23.6817 12.3414 23.9091 12.3414C24.0227 12.3414 24.0909 12.3414 24.2955 11.5902C24.3637 11.3171 24.4547 11.0439 24.5911 10.7708C24.8639 9.90577 25.4777 9.45051 25.9324 9.24564C27.2055 8.6538 28.7059 9.26842 29.7062 9.65539C29.9336 9.74644 30.1382 9.83748 30.2519 9.86024C31.4113 10.2472 31.866 10.8618 32.0706 11.3171C32.6389 12.569 32.0933 13.9804 31.8205 14.6632C31.8205 14.7315 31.7523 14.8681 31.7296 14.9364C31.775 15.0047 32.0933 15.2778 32.2979 15.4599C32.4798 15.6193 32.6844 15.7786 32.8663 15.9607C33.0481 16.029 33.4119 15.8469 33.6165 15.7331C34.2758 15.3689 35.2761 14.8453 36.5037 15.2551C37.6632 15.642 37.9814 16.3249 38.7544 17.9183L39.2091 18.8744C39.6638 19.8077 39.5501 20.5589 39.3909 21.0369C38.9135 22.3116 37.5267 22.9262 36.8675 23.2221L36.6628 23.3132C36.5492 23.4498 36.5719 23.8822 36.6174 24.1554C36.6401 24.4058 36.6628 24.6334 36.6628 24.8838C36.6628 24.9976 36.6629 25.0659 37.4131 25.2708C37.6632 25.3391 37.9132 25.4074 38.1633 25.5212C39.1181 25.8626 39.5501 26.4545 39.7547 26.9097C40.3458 28.1844 39.7319 29.6868 39.3455 30.6884C39.2545 30.916 39.1636 31.1209 39.1409 31.2347C38.7544 32.3956 38.1406 32.8509 37.6859 33.0557C36.4355 33.6248 35.026 33.0785 34.344 32.8053C34.2758 32.8053 34.1394 32.737 34.0712 32.7143C34.0712 32.737 33.9802 32.7826 33.9575 32.8053C33.7984 33.0102 33.6392 33.1923 33.4574 33.3744C33.2755 33.5793 32.98 33.898 32.9572 34.0118L33.6165 35.2865C34.0712 36.2198 33.9575 36.9937 33.7984 37.4717C33.2982 38.792 31.7978 39.4521 30.8202 39.8619C30.5929 39.9529 30.411 40.0212 30.2973 40.0895C29.4562 40.522 28.6832 40.5675 27.9557 40.3171C26.7736 39.9074 26.3189 38.9286 25.9779 38.2002C25.8642 37.9725 25.6823 37.5856 25.5914 37.5173C25.2731 37.5628 25.023 37.5628 24.773 37.5856C24.5002 37.6083 24.0682 37.6083 23.9545 37.6766L23.4998 39.0424C23.1588 40.044 22.545 40.4992 22.0903 40.7041C21.6811 40.9317 21.2719 41 20.8627 41Z" fill="black"/>
<path d="M3.54005 36C3.17697 36 2.83657 35.8152 2.67772 35.4686C0.930384 32.0488 0 28.1669 0 24.285C0 10.8832 10.7109 0 23.85 0C30.2267 0 36.2175 2.51861 40.7107 7.11681C41.0964 7.50963 41.0964 8.1335 40.7107 8.52631C40.3249 8.91912 39.7122 8.91912 39.3264 8.52631C35.1964 4.32092 29.7047 2.01027 23.85 2.01027C11.7775 2.01027 1.97425 12.0154 1.97425 24.285C1.97425 27.9127 2.7912 31.3556 4.42508 34.5443C4.6747 35.0295 4.49314 35.6303 4.0166 35.8845C3.85775 35.9769 3.6989 36 3.54005 36Z" fill="black"/>
<path d="M23.9348 48C20.7094 48 17.5525 47.3571 14.6015 46.1173C14.0983 45.9107 13.8695 45.3138 14.0754 44.8087C14.2813 44.3036 14.8761 44.074 15.3793 44.2806C18.1015 45.4286 20.9839 46.0255 23.9577 46.0255C36.1275 46.0255 46.0098 36.0842 46.0098 23.8699C46.0098 22.9516 45.9641 22.0332 45.8497 21.1148C45.7811 20.5638 46.17 20.0817 46.719 20.0128C47.268 19.921 47.7484 20.3342 47.817 20.8853C47.9314 21.8725 48 22.8827 48 23.8699C47.9771 37.1633 37.1798 48 23.9348 48Z" fill="black"/>
<path d="M40.0885 9H36.9302C36.411 9 36 8.51695 36 7.90678C36 7.29661 36.411 6.81356 36.9302 6.81356H39.1366V4.09322C39.1366 3.48305 39.5477 3 40.0668 3C40.586 3 40.997 3.48305 40.997 4.09322V7.90678C41.0403 8.51695 40.6076 9 40.0885 9Z" fill="black"/>
<path d="M16.2609 49C15.8766 49 15.5148 48.7858 15.3566 48.4217L14.0678 45.4447C13.9774 45.2092 13.9774 44.9521 14.0678 44.738C14.1583 44.5024 14.3618 44.3311 14.6105 44.2454L17.6627 43.0674C18.1601 42.8747 18.7253 43.1103 18.9288 43.5814C19.1323 44.0526 18.8836 44.5881 18.3862 44.7808L16.2383 45.6161L17.1427 47.7364C17.3462 48.2076 17.0975 48.743 16.6001 48.9357C16.5096 48.9786 16.374 49 16.2609 49Z" fill="black"/>
</svg>
