<svg width="18" height="18" viewBox="0 0 18 18" fill="none" xmlns="http://www.w3.org/2000/svg">
<path d="M3.04159 4.49759C2.09333 5.75199 1.53333 7.31253 1.53333 8.99999C1.53333 13.1216 4.87839 16.4667 8.99999 16.4667C13.1216 16.4667 16.4667 13.1216 16.4667 8.99999C16.4667 4.87839 13.1216 1.53333 8.99999 1.53333" stroke="#111111" stroke-width="1.2" stroke-linecap="round" stroke-linejoin="round"/>
<path d="M3.93332 9.00002C3.93332 11.8012 6.19884 14.0667 8.99999 14.0667C11.8011 14.0667 14.0667 11.8012 14.0667 9.00002C14.0667 6.19887 11.8011 3.93335 8.99999 3.93335" stroke="#111111" stroke-width="1.2" stroke-linecap="round" stroke-linejoin="round"/>
<path d="M9 11.9333C10.6207 11.9333 11.9333 10.6207 11.9333 8.99998C11.9333 7.37932 10.6207 6.06665 9 6.06665" stroke="#111111" stroke-width="1.2" stroke-linecap="round" stroke-linejoin="round"/>
</svg>
