<svg width="18" height="30" viewBox="0 0 18 30" fill="none" xmlns="http://www.w3.org/2000/svg">
<path d="M8.91764 15.4835C13.3063 15.4821 16.8612 12.0141 16.8598 7.739C16.8584 3.46255 13.2993 -0.00137909 8.91197 4.11894e-07C4.52468 0.00137991 0.968408 3.46944 0.969824 7.74452C0.975487 12.0182 4.53176 15.4808 8.91764 15.4835ZM8.91764 4.53856C10.7354 4.53856 12.2092 5.97462 12.2092 7.7459C12.2092 9.51717 10.7354 10.9519 8.91764 10.9519C7.09986 10.9519 5.6261 9.5158 5.6261 7.74452C5.62894 5.97462 7.10128 4.53994 8.91764 4.53856ZM12.1299 21.8002C13.765 21.4388 15.3252 20.8084 16.7451 19.9379C17.8267 19.2578 18.1382 17.8535 17.4402 16.7996C16.7536 15.7622 15.3407 15.449 14.262 16.096C10.9902 18.0894 6.83654 18.0894 3.56483 16.096C2.47897 15.4325 1.04486 15.7498 0.361067 16.8065C-0.325554 17.8645 -0.00277115 19.2661 1.0845 19.9352C1.08591 19.9352 1.08733 19.9365 1.08733 19.9365C2.50587 20.8056 4.06599 21.4361 5.69972 21.7989L1.25721 26.1277C0.372393 27.0382 0.413449 28.4757 1.34923 29.3378C2.24821 30.1655 3.6526 30.1655 4.55158 29.3378L8.91481 25.0835L13.2809 29.3378C14.1898 30.2221 15.6607 30.2221 16.5696 29.3378C17.477 28.4522 17.477 27.0189 16.5696 26.1333L12.1299 21.8002Z" fill="currentColor"/>
</svg>
