<svg width="51" height="51" viewBox="0 0 51 51" fill="none" xmlns="http://www.w3.org/2000/svg">
<mask id="path-1-inside-1_159_33" fill="white">
<path d="M49.1684 26.297V44.8888C49.1684 47.2444 47.2538 49.1684 44.8888 49.1684H26.297V42.8616C26.297 42.8616 26.3063 42.8616 26.3063 42.871C26.372 42.9179 26.4377 42.9648 26.5034 43.0024C26.5316 43.0211 26.5597 43.0399 26.5879 43.0493C26.6254 43.0775 26.6724 43.1056 26.7099 43.1244C26.7474 43.1432 26.785 43.1619 26.8225 43.1901C26.8601 43.2088 26.8882 43.2276 26.9258 43.2464C26.9633 43.2652 27.0102 43.2933 27.0478 43.3121C27.0759 43.3309 27.1041 43.3402 27.1416 43.359C27.1885 43.3778 27.2355 43.4059 27.2824 43.4247C27.3105 43.4341 27.3387 43.4529 27.3669 43.4622C27.4138 43.481 27.4607 43.4998 27.517 43.5279C27.5452 43.5373 27.5639 43.5467 27.5921 43.5561C27.6484 43.5749 27.6953 43.5936 27.7423 43.6124C27.761 43.6218 27.7892 43.6312 27.8173 43.6406C27.8736 43.6593 27.9206 43.6781 27.9769 43.6969C27.9957 43.7063 28.0238 43.7156 28.052 43.7156C28.1083 43.7344 28.1552 43.7438 28.2115 43.7626C28.2397 43.7719 28.2584 43.7719 28.2866 43.7813C28.3429 43.8001 28.3898 43.8095 28.4461 43.8189C28.4743 43.8283 28.4931 43.8283 28.5212 43.8377C28.5775 43.847 28.6245 43.8564 28.6808 43.8752C28.7089 43.8846 28.7371 43.8846 28.7652 43.894C28.8122 43.9033 28.8685 43.9127 28.9154 43.9221C28.9435 43.9221 28.9717 43.9315 28.9999 43.9315C29.0468 43.9409 29.1031 43.9409 29.15 43.9503C29.1782 43.9503 29.2157 43.9597 29.2439 43.9597C29.2908 43.969 29.3377 43.969 29.3846 43.969C29.4222 43.969 29.4597 43.9784 29.4879 43.9784C29.5348 43.9784 29.5817 43.9878 29.6193 43.9878C29.6568 43.9878 29.6943 43.9878 29.7319 43.9878C29.7788 43.9878 29.8164 43.9878 29.8633 43.9878C29.882 43.9878 29.9008 43.9878 29.9196 43.9878C29.9384 43.9878 29.9571 43.9878 29.9759 43.9878C30.0041 43.9878 30.0322 43.9878 30.0604 43.9878C30.0885 43.9878 30.1167 43.9878 30.1448 43.9878C30.1918 43.9878 30.2481 43.9878 30.295 43.9784C30.3419 43.9784 30.3888 43.969 30.4358 43.969C30.4921 43.9597 30.5578 43.9597 30.6141 43.9503C30.6516 43.9503 30.6798 43.9409 30.7173 43.9409C30.7924 43.9315 30.8675 43.9221 30.9332 43.9127C30.952 43.9127 30.9613 43.9033 30.9801 43.9033C32.2659 43.6875 33.439 43.0775 34.3775 42.1296C35.2972 41.1911 35.8885 40.0179 36.095 38.7509C36.095 38.7322 36.1043 38.7228 36.1043 38.704C36.1137 38.6289 36.1231 38.5539 36.1325 38.4788C36.1419 38.4412 36.1419 38.4131 36.1419 38.3755C36.1513 38.3098 36.1513 38.2535 36.1607 38.1878C36.1607 38.1409 36.17 38.094 36.17 38.0471C36.17 37.9908 36.1794 37.9438 36.1794 37.8875C36.1794 37.8687 36.1794 37.85 36.1794 37.8312C36.1794 37.8031 36.1794 37.7655 36.1794 37.7374C36.1794 37.7092 36.1794 37.6717 36.1794 37.6435C36.1794 37.6247 36.1794 37.606 36.1794 37.5778C36.1794 37.5309 36.1794 37.4746 36.17 37.4276C36.17 37.3807 36.17 37.3338 36.1607 37.2869C36.1607 37.2306 36.1513 37.1649 36.1419 37.1086C36.1419 37.071 36.1325 37.0335 36.1325 37.0053C36.1231 36.9302 36.1137 36.8552 36.1043 36.7801C36.1043 36.7613 36.095 36.7425 36.095 36.7238C35.8885 35.4568 35.2972 34.2836 34.3775 33.3451C33.4484 32.3972 32.2659 31.7872 30.9801 31.5714C30.9613 31.5714 30.952 31.562 30.9332 31.562C30.8581 31.5526 30.783 31.5432 30.7079 31.5338C30.6704 31.5338 30.6422 31.5244 30.6047 31.5244C30.5484 31.5151 30.4827 31.5151 30.4264 31.5057C30.3795 31.5057 30.3325 31.4963 30.2856 31.4963C30.2293 31.4963 30.1824 31.4869 30.1261 31.4869C30.0979 31.4869 30.0698 31.4869 30.0416 31.4869C30.0134 31.4869 29.9853 31.4869 29.9571 31.4869C29.9384 31.4869 29.9196 31.4869 29.9008 31.4869C29.8821 31.4869 29.8633 31.4869 29.8445 31.4869C29.807 31.4869 29.7694 31.4869 29.7319 31.4869C29.685 31.4869 29.6474 31.4869 29.6005 31.4963C29.563 31.4963 29.516 31.4963 29.4785 31.5057C29.441 31.5057 29.394 31.5151 29.3565 31.5151C29.3189 31.5151 29.272 31.5244 29.2251 31.5244C29.1876 31.5244 29.15 31.5338 29.1125 31.5338C29.0655 31.5432 29.0186 31.5432 28.9717 31.5526C28.9435 31.562 28.906 31.562 28.8778 31.5714C28.8309 31.5808 28.784 31.5901 28.7371 31.5995C28.7089 31.6089 28.6808 31.6089 28.6526 31.6183C28.5963 31.6277 28.5494 31.6371 28.4931 31.6558C28.4649 31.6652 28.4461 31.6652 28.418 31.6746C28.3617 31.684 28.3054 31.7028 28.2491 31.7121C28.2303 31.7215 28.2115 31.7215 28.1927 31.7309C28.1364 31.7497 28.0801 31.7685 28.0144 31.7872C27.9957 31.7966 27.9863 31.7966 27.9675 31.806C27.9018 31.8248 27.8455 31.8435 27.7798 31.8717C27.7704 31.8717 27.761 31.8811 27.7516 31.8811C27.6859 31.9092 27.6203 31.928 27.5546 31.9562C27.5452 31.9562 27.5452 31.9562 27.5452 31.9655C27.1041 32.1439 26.6817 32.3691 26.2876 32.6507V26.297H32.6037C33.2419 26.297 33.8238 25.9497 34.1147 25.3772C34.415 24.8047 34.3681 24.1196 33.9927 23.5941C33.4484 22.8245 33.1668 21.9235 33.1668 20.9756C33.1668 19.7462 33.6455 18.5918 34.5277 17.7284C35.4005 16.865 36.5642 16.3957 37.7937 16.4145C40.215 16.452 42.2234 18.451 42.2797 20.863C42.2985 21.8484 42.0169 22.7869 41.4445 23.5941C41.0784 24.1196 41.0315 24.7953 41.3224 25.3678C41.6134 25.9309 42.1953 26.2876 42.8334 26.2876H49.1684V26.297ZM25.4992 41.3412C24.9361 41.6322 24.5795 42.214 24.5795 42.8522V42.8616V49.1777H5.98767C3.63202 49.1777 1.70808 47.2632 1.70808 44.8982V26.297H8.01485C8.01485 26.297 8.01485 26.3063 8.00546 26.3063C7.95854 26.372 7.91161 26.4377 7.87407 26.5034C7.8553 26.5316 7.83653 26.5597 7.81776 26.5879C7.78961 26.6254 7.77083 26.663 7.74268 26.7099C7.72391 26.7474 7.69576 26.785 7.67698 26.8225C7.65821 26.8507 7.63944 26.8882 7.62067 26.9164C7.59252 26.9633 7.57375 27.0102 7.54559 27.0478C7.52682 27.0759 7.51744 27.1041 7.50805 27.1228C7.48928 27.1698 7.46113 27.2261 7.44236 27.273C7.43297 27.2918 7.42359 27.3199 7.40482 27.3387C7.38605 27.395 7.35789 27.4419 7.33912 27.4982C7.32974 27.517 7.32035 27.5452 7.31097 27.5639C7.2922 27.6203 7.27343 27.6766 7.24527 27.7235C7.23589 27.7423 7.2265 27.761 7.21712 27.7892C7.19835 27.8455 7.17958 27.9018 7.16081 27.9581C7.15142 27.9769 7.15142 27.9957 7.14204 28.0238C7.12327 28.0801 7.1045 28.1364 7.09511 28.1927C7.08572 28.2115 7.08573 28.2397 7.07634 28.2584C7.05757 28.3147 7.04818 28.3711 7.0388 28.418C7.02941 28.4461 7.02942 28.4649 7.02003 28.4931C7.01064 28.5494 7.00126 28.5963 6.98249 28.6526C6.9731 28.6808 6.9731 28.7089 6.96372 28.7371C6.95433 28.784 6.94495 28.8403 6.93556 28.8872C6.92618 28.9154 6.92618 28.9435 6.91679 28.9811C6.90741 29.028 6.90741 29.0749 6.89802 29.1312C6.89802 29.1688 6.88864 29.1969 6.88864 29.2345C6.88864 29.2814 6.87925 29.3283 6.87925 29.3753C6.87925 29.4128 6.86987 29.4503 6.86987 29.4879C6.86987 29.5348 6.86048 29.5723 6.86048 29.6193C6.86048 29.6568 6.86048 29.7037 6.8511 29.7413C6.8511 29.7788 6.8511 29.8257 6.8511 29.8633C6.8511 29.8821 6.8511 29.9008 6.8511 29.9196C6.8511 29.9384 6.8511 29.9571 6.8511 29.9759C6.8511 30.0041 6.8511 30.0322 6.8511 30.0604C6.8511 30.0885 6.8511 30.1167 6.8511 30.1448C6.8511 30.2011 6.8511 30.2481 6.86048 30.3044C6.86048 30.3513 6.86987 30.3982 6.86987 30.4452C6.87925 30.5015 6.87925 30.5672 6.88864 30.6235C6.88864 30.661 6.89802 30.6892 6.89802 30.7267C6.90741 30.8018 6.91679 30.8769 6.92618 30.9519C6.92618 30.9613 6.93556 30.9801 6.93556 30.9895C7.15142 32.2752 7.76145 33.4484 8.70934 34.3869C9.50707 35.1658 10.4737 35.7102 11.5249 35.9823C11.5249 35.9823 11.5249 35.9823 11.5342 35.9823C11.6187 36.0011 11.7032 36.0199 11.7876 36.0387C11.8158 36.048 11.8346 36.048 11.8627 36.0574C11.9284 36.0668 11.9941 36.0856 12.0598 36.095C12.0974 36.1044 12.1443 36.1044 12.1818 36.1137C12.2381 36.1231 12.2851 36.1325 12.3414 36.1325C12.3977 36.1419 12.454 36.1419 12.5103 36.1513C12.5572 36.1513 12.5948 36.1607 12.6417 36.1607C12.7074 36.1607 12.7637 36.17 12.8294 36.17C12.8669 36.17 12.9139 36.17 12.9514 36.1794C12.9702 36.1794 12.9983 36.1794 13.0265 36.1794C13.0546 36.1794 13.0922 36.1794 13.1203 36.1794C13.1391 36.1794 13.1485 36.1794 13.1672 36.1794C13.186 36.1794 13.1954 36.1794 13.2142 36.1794C13.2517 36.1794 13.2799 36.1794 13.3174 36.1794C13.3737 36.1794 13.4206 36.1794 13.477 36.17C13.5145 36.17 13.5614 36.1607 13.599 36.1607C13.6647 36.1513 13.7304 36.1513 13.7867 36.1419C13.8148 36.1419 13.8336 36.1325 13.8617 36.1325C13.9462 36.1231 14.0213 36.1137 14.1058 36.095H14.1151C15.3915 35.8885 16.574 35.2972 17.5125 34.3775C18.4604 33.4484 19.0705 32.2659 19.2863 30.9801C19.2863 30.9613 19.2863 30.952 19.2957 30.9332C19.3051 30.8581 19.3145 30.783 19.3239 30.7173C19.3239 30.6798 19.3332 30.6516 19.3332 30.6141C19.3426 30.5578 19.3426 30.4921 19.352 30.4358C19.352 30.3888 19.3614 30.3419 19.3614 30.295C19.3614 30.2481 19.3708 30.1918 19.3708 30.1448C19.3708 30.1167 19.3708 30.0885 19.3708 30.0604C19.3708 30.0322 19.3708 30.0041 19.3708 29.9759C19.3708 29.9571 19.3708 29.9384 19.3708 29.9196C19.3708 29.9008 19.3708 29.8821 19.3708 29.8633C19.3708 29.8257 19.3708 29.7788 19.3708 29.7413C19.3708 29.7037 19.3708 29.6662 19.3708 29.6193C19.3708 29.5723 19.3708 29.5348 19.3614 29.4879C19.3614 29.4503 19.352 29.4128 19.352 29.3846C19.352 29.3377 19.3426 29.2908 19.3426 29.2439C19.3426 29.2157 19.3332 29.1782 19.3332 29.15C19.3239 29.1031 19.3239 29.0468 19.3145 28.9999C19.3145 28.9717 19.3051 28.9435 19.3051 28.9154C19.2957 28.8591 19.2863 28.8122 19.2769 28.7558C19.2769 28.7277 19.2675 28.7089 19.2582 28.6808C19.2488 28.6245 19.23 28.5681 19.2206 28.5118C19.2112 28.4931 19.2112 28.4743 19.2018 28.4555C19.1925 28.3992 19.1737 28.3335 19.1549 28.2772C19.1549 28.2584 19.1455 28.249 19.1455 28.2303C19.1268 28.1646 19.108 28.1083 19.0892 28.0426C19.0892 28.0332 19.0798 28.0144 19.0798 28.005C19.0611 27.9393 19.0329 27.8736 19.0141 27.808C19.0141 27.7986 19.0048 27.7892 19.0048 27.7798C18.9766 27.7141 18.9578 27.6484 18.9297 27.5733V27.5639C18.7514 27.1228 18.5261 26.7005 18.2446 26.3063H24.5513V32.6225C24.5513 33.2607 24.908 33.8426 25.4711 34.1335C26.0436 34.4244 26.7193 34.3775 27.2448 34.0115C27.3481 33.9458 27.4419 33.8801 27.5452 33.8144C27.5639 33.805 27.5827 33.7862 27.6109 33.7769C27.639 33.7581 27.6672 33.7393 27.7047 33.7299C27.7329 33.7112 27.761 33.7018 27.7892 33.683C27.8173 33.6736 27.8361 33.6549 27.8643 33.6455C27.8924 33.6267 27.9206 33.6173 27.9581 33.5985C27.9769 33.5892 28.005 33.5798 28.0238 33.5704C28.052 33.561 28.0895 33.5422 28.1177 33.5328C28.1364 33.5235 28.1646 33.5141 28.1834 33.5047C28.2115 33.4953 28.249 33.4765 28.2772 33.4672C28.296 33.4578 28.3241 33.4484 28.3523 33.439C28.3804 33.4296 28.418 33.4202 28.4461 33.4108C28.4743 33.4015 28.4931 33.3921 28.5212 33.3827C28.5494 33.3733 28.5869 33.3639 28.6151 33.3545C28.6432 33.3451 28.662 33.3358 28.6901 33.3358C28.7183 33.3264 28.7465 33.317 28.784 33.317C28.8122 33.3076 28.8403 33.3076 28.8685 33.2982C28.8966 33.2888 28.9248 33.2888 28.9529 33.2794C28.9811 33.2701 29.0092 33.2701 29.0374 33.2607C29.0655 33.2513 29.0937 33.2513 29.1219 33.2419C29.15 33.2325 29.1876 33.2325 29.2157 33.2231C29.2439 33.2231 29.272 33.2138 29.3002 33.2138C29.3283 33.2138 29.3659 33.2044 29.394 33.2044C29.4222 33.2044 29.441 33.195 29.4691 33.195C29.5066 33.195 29.5348 33.1856 29.5723 33.1856C29.6005 33.1856 29.6287 33.1856 29.6474 33.1856C29.685 33.1856 29.7131 33.1856 29.7507 33.1856C29.7788 33.1856 29.807 33.1856 29.8257 33.1856C29.8539 33.1856 29.882 33.1856 29.9102 33.1856C29.9477 33.1856 29.9947 33.1856 30.0322 33.1856C30.0698 33.1856 30.1167 33.1856 30.1542 33.195C30.1824 33.195 30.2105 33.195 30.2387 33.2044C30.295 33.2044 30.3419 33.2137 30.3982 33.2231C30.4076 33.2231 30.417 33.2231 30.4264 33.2231C32.4817 33.4859 34.1335 35.1565 34.3869 37.2118C34.3869 37.2212 34.3869 37.2399 34.3869 37.2493C34.3963 37.3056 34.3963 37.362 34.4057 37.4089C34.4057 37.437 34.4057 37.4746 34.415 37.5027C34.415 37.5403 34.415 37.5872 34.4244 37.6247C34.4244 37.6623 34.4244 37.6998 34.4244 37.7374C34.4244 37.7749 34.4244 37.8124 34.4244 37.85C34.4244 37.8969 34.4244 37.9344 34.415 37.972C34.415 38.0001 34.415 38.0283 34.4057 38.0564C34.4057 38.1128 34.3963 38.1691 34.3869 38.2254C34.3869 38.2348 34.3869 38.2441 34.3869 38.2535C34.1429 40.3089 32.4817 41.9794 30.4358 42.2422C30.4264 42.2422 30.417 42.2422 30.3982 42.2422C30.3419 42.2516 30.295 42.2516 30.2387 42.261C30.2105 42.261 30.1824 42.2703 30.1448 42.2703C30.1073 42.2703 30.0604 42.2703 30.0228 42.2797C29.9853 42.2797 29.9384 42.2797 29.9008 42.2797C29.8727 42.2797 29.8445 42.2797 29.8164 42.2797C29.7976 42.2797 29.7694 42.2797 29.7507 42.2797C29.7131 42.2797 29.6756 42.2797 29.638 42.2797C29.6193 42.2797 29.6005 42.2797 29.5817 42.2797C29.5442 42.2797 29.4973 42.2703 29.4597 42.2703C29.441 42.2703 29.4222 42.2703 29.4034 42.261C29.3659 42.261 29.3189 42.2516 29.2814 42.2422C29.2626 42.2422 29.2439 42.2422 29.2345 42.2328C29.1876 42.2234 29.15 42.2234 29.1125 42.214C29.0937 42.214 29.0749 42.2046 29.0562 42.2046C29.0186 42.1953 28.9717 42.1859 28.9342 42.1765C28.9154 42.1765 28.8966 42.1671 28.8778 42.1671C28.8403 42.1577 28.8028 42.1483 28.7652 42.139C28.7465 42.1296 28.7277 42.1296 28.7089 42.1202C28.6714 42.1108 28.6338 42.1014 28.5963 42.092C28.5775 42.0826 28.5494 42.0826 28.5306 42.0733C28.4931 42.0639 28.4649 42.0545 28.4274 42.0357C28.4086 42.0263 28.3804 42.0169 28.3617 42.0169C28.3335 42.0076 28.296 41.9982 28.2678 41.9794C28.249 41.97 28.2209 41.9606 28.1927 41.9512C28.1646 41.9419 28.127 41.9231 28.0989 41.9137C28.0707 41.9043 28.052 41.8949 28.0238 41.8856C27.9957 41.8762 27.9675 41.8574 27.9393 41.848C27.9112 41.8386 27.8924 41.8292 27.8643 41.8105C27.8361 41.7917 27.808 41.7823 27.7798 41.7635C27.761 41.7542 27.7329 41.7354 27.7141 41.726C27.6859 41.7072 27.6578 41.6885 27.6202 41.6791C27.6015 41.6697 27.5827 41.6509 27.5546 41.6415C27.517 41.6228 27.4889 41.604 27.4513 41.5758C27.4325 41.5665 27.4138 41.5571 27.395 41.5477C27.3481 41.5195 27.3012 41.482 27.2542 41.4538C27.2542 41.4538 27.2448 41.4538 27.2448 41.4445C26.7568 41.0878 26.0717 41.0409 25.4992 41.3412ZM1.70808 5.99706C1.70808 3.64141 3.63202 1.71747 5.98767 1.71747H24.5795V8.03362C23.519 7.2922 22.2708 6.89802 20.9756 6.89802C19.2863 6.89802 17.7002 7.56437 16.5083 8.76565C15.3164 9.96694 14.6782 11.5624 14.7064 13.2611C14.7346 14.8847 15.3821 16.4145 16.5271 17.5782C17.6815 18.742 19.2018 19.3989 20.8255 19.4365C22.1769 19.4646 23.472 19.0705 24.5701 18.3009V24.6076H18.254C17.6158 24.6076 17.0339 24.9643 16.743 25.5274C16.452 26.0999 16.4989 26.7756 16.865 27.3012C16.9025 27.3481 16.9307 27.4044 16.9682 27.4513C16.9964 27.4982 17.0339 27.5452 17.062 27.6015C17.0808 27.6296 17.0902 27.6578 17.109 27.6859C17.1184 27.7141 17.1371 27.7329 17.1465 27.761C17.1653 27.7986 17.1841 27.8267 17.2028 27.8643C17.2122 27.883 17.2216 27.9018 17.231 27.9206C17.2498 27.9581 17.2685 27.9957 17.2873 28.0332C17.2967 28.052 17.3061 28.0613 17.3061 28.0801C17.3248 28.1177 17.3436 28.1552 17.353 28.1927C17.3624 28.2115 17.3624 28.2209 17.3718 28.2397C17.3905 28.2772 17.3999 28.3241 17.4187 28.3617C17.4281 28.3804 17.4281 28.3898 17.4375 28.4086C17.4562 28.4461 17.4656 28.4931 17.475 28.5306C17.4844 28.5494 17.4844 28.5588 17.4938 28.5775C17.5031 28.6151 17.5219 28.662 17.5313 28.6995C17.5313 28.7183 17.5407 28.7277 17.5501 28.7465C17.5595 28.784 17.5688 28.8215 17.5782 28.8685C17.5782 28.8872 17.5876 28.906 17.5876 28.9248C17.597 28.9623 17.6064 28.9999 17.6158 29.0374C17.6158 29.0562 17.6252 29.0749 17.6252 29.0937C17.6345 29.1312 17.6345 29.1688 17.6439 29.2063C17.6439 29.2251 17.6533 29.2533 17.6533 29.272C17.6627 29.3096 17.6627 29.3377 17.6721 29.3753C17.6721 29.4034 17.6815 29.4222 17.6815 29.4503C17.6815 29.4879 17.6909 29.516 17.6909 29.5536C17.6909 29.5817 17.6908 29.6099 17.7002 29.638C17.7002 29.6662 17.7096 29.7037 17.7096 29.7319C17.7096 29.76 17.7096 29.7882 17.7096 29.8164C17.7096 29.8445 17.7096 29.8727 17.7096 29.9102C17.7096 29.9384 17.7096 29.9665 17.7096 29.9853C17.7096 30.0322 17.7096 30.0698 17.7096 30.1167C17.7096 30.1542 17.7096 30.2011 17.7002 30.2387C17.7002 30.2668 17.7002 30.295 17.6909 30.3325C17.6909 30.3888 17.6815 30.4358 17.6721 30.4921C17.6721 30.5015 17.6721 30.5109 17.6721 30.5296C17.4093 32.5756 15.7481 34.2367 13.6928 34.4807C13.674 34.4807 13.6553 34.4807 13.6365 34.4901C13.5896 34.4995 13.5427 34.4995 13.4863 34.4995C13.4488 34.4995 13.4206 34.4995 13.3831 34.5089C13.3456 34.5089 13.308 34.5089 13.2705 34.5089C13.2329 34.5089 13.1954 34.5089 13.1579 34.5089C13.1203 34.5089 13.0828 34.5089 13.0452 34.5089C13.0077 34.5089 12.9702 34.5089 12.9232 34.4995C12.8951 34.4995 12.8575 34.4995 12.8294 34.4901C12.7731 34.4901 12.7168 34.4807 12.6698 34.4713C12.6605 34.4713 12.6417 34.4713 12.6323 34.4713C10.577 34.2273 8.90643 32.5662 8.64365 30.5109C8.64365 30.5015 8.64365 30.4921 8.64365 30.4827C8.63426 30.4264 8.63426 30.3795 8.62488 30.3232C8.62488 30.295 8.62488 30.2668 8.61549 30.2387C8.61549 30.2011 8.60611 30.1542 8.60611 30.1167C8.60611 30.0791 8.60611 30.0322 8.60611 29.9947C8.60611 29.9665 8.60611 29.9384 8.60611 29.9102C8.60611 29.8821 8.60611 29.8539 8.60611 29.8257C8.60611 29.7976 8.60611 29.7694 8.60611 29.7319C8.60611 29.7037 8.60611 29.6756 8.61549 29.638C8.61549 29.6099 8.61549 29.5817 8.62488 29.5536C8.62488 29.5254 8.63426 29.4879 8.63426 29.4597C8.63426 29.4316 8.64365 29.4034 8.64365 29.3846C8.64365 29.3471 8.65303 29.3189 8.65303 29.2814C8.65303 29.2533 8.66242 29.2345 8.66242 29.2063C8.6718 29.1688 8.6718 29.1313 8.68119 29.1031C8.68119 29.0843 8.69057 29.0562 8.69057 29.0374C8.69996 28.9999 8.70934 28.9623 8.70934 28.9248C8.70934 28.906 8.71873 28.8872 8.72811 28.8685C8.7375 28.8309 8.74688 28.7934 8.75627 28.7558C8.76565 28.7371 8.76565 28.7183 8.77504 28.6995C8.78442 28.662 8.79381 28.6245 8.81258 28.5869C8.82196 28.5681 8.82196 28.5494 8.83135 28.54C8.84073 28.5025 8.8595 28.4649 8.86889 28.4274C8.87827 28.4086 8.87827 28.3992 8.88766 28.3804C8.90643 28.3429 8.91581 28.3054 8.93458 28.2678C8.94397 28.2491 8.95335 28.2303 8.95335 28.2209C8.97212 28.1834 8.98151 28.1458 9.00028 28.1083C9.00966 28.0895 9.01905 28.0707 9.02843 28.052C9.0472 28.0144 9.05659 27.9863 9.07536 27.9487C9.08474 27.93 9.09413 27.9112 9.10351 27.8924C9.12228 27.8643 9.13167 27.8267 9.15044 27.7986C9.15983 27.7704 9.1786 27.7516 9.18798 27.7235C9.20675 27.6953 9.21614 27.6672 9.23491 27.639C9.25368 27.6109 9.27245 27.5733 9.29122 27.5452C9.3006 27.5264 9.30999 27.5076 9.32876 27.4889C9.3663 27.4419 9.39445 27.3856 9.43199 27.3387C9.45076 27.3105 9.46015 27.2918 9.47892 27.2636C9.80739 26.7474 9.83555 26.0999 9.554 25.5555C9.26306 24.9924 8.68119 24.6358 8.043 24.6358H8.03362H1.70808V5.99706ZM43.9972 20.8442C43.9597 19.2206 43.3027 17.7002 42.139 16.5459C40.9752 15.3915 39.4454 14.7439 37.8218 14.7252C36.1231 14.697 34.537 15.3352 33.3264 16.5271C32.1251 17.719 31.4587 19.2957 31.4587 20.9944C31.4587 22.2895 31.8529 23.5378 32.6037 24.5983H26.2876V18.2727C26.2876 17.6345 25.9309 17.0527 25.3678 16.7617C24.7953 16.4708 24.1196 16.5177 23.5941 16.8837C22.7963 17.4468 21.8484 17.7378 20.863 17.7096C18.4417 17.6533 16.452 15.6449 16.4145 13.2236C16.3957 11.9941 16.865 10.8304 17.7284 9.95756C18.5918 9.08475 19.7462 8.59672 20.9756 8.59672C21.9235 8.59672 22.8245 8.88766 23.5941 9.42261C24.1196 9.79801 24.8047 9.84494 25.3772 9.54461C25.9403 9.25368 26.297 8.6718 26.297 8.03362V0H5.98767C2.68413 0 0 2.68413 0 5.98767V24.5795V26.297V44.8888C0 48.1923 2.68413 50.8764 5.98767 50.8764H24.5795H44.8888C48.1923 50.8764 50.8764 48.1923 50.8764 44.8888V24.5889H42.8522C43.6312 23.4908 44.0253 22.1957 43.9972 20.8442Z"/>
</mask>
<path d="M49.1684 26.297V44.8888C49.1684 47.2444 47.2538 49.1684 44.8888 49.1684H26.297V42.8616C26.297 42.8616 26.3063 42.8616 26.3063 42.871C26.372 42.9179 26.4377 42.9648 26.5034 43.0024C26.5316 43.0211 26.5597 43.0399 26.5879 43.0493C26.6254 43.0775 26.6724 43.1056 26.7099 43.1244C26.7474 43.1432 26.785 43.1619 26.8225 43.1901C26.8601 43.2088 26.8882 43.2276 26.9258 43.2464C26.9633 43.2652 27.0102 43.2933 27.0478 43.3121C27.0759 43.3309 27.1041 43.3402 27.1416 43.359C27.1885 43.3778 27.2355 43.4059 27.2824 43.4247C27.3105 43.4341 27.3387 43.4529 27.3669 43.4622C27.4138 43.481 27.4607 43.4998 27.517 43.5279C27.5452 43.5373 27.5639 43.5467 27.5921 43.5561C27.6484 43.5749 27.6953 43.5936 27.7423 43.6124C27.761 43.6218 27.7892 43.6312 27.8173 43.6406C27.8736 43.6593 27.9206 43.6781 27.9769 43.6969C27.9957 43.7063 28.0238 43.7156 28.052 43.7156C28.1083 43.7344 28.1552 43.7438 28.2115 43.7626C28.2397 43.7719 28.2584 43.7719 28.2866 43.7813C28.3429 43.8001 28.3898 43.8095 28.4461 43.8189C28.4743 43.8283 28.4931 43.8283 28.5212 43.8377C28.5775 43.847 28.6245 43.8564 28.6808 43.8752C28.7089 43.8846 28.7371 43.8846 28.7652 43.894C28.8122 43.9033 28.8685 43.9127 28.9154 43.9221C28.9435 43.9221 28.9717 43.9315 28.9999 43.9315C29.0468 43.9409 29.1031 43.9409 29.15 43.9503C29.1782 43.9503 29.2157 43.9597 29.2439 43.9597C29.2908 43.969 29.3377 43.969 29.3846 43.969C29.4222 43.969 29.4597 43.9784 29.4879 43.9784C29.5348 43.9784 29.5817 43.9878 29.6193 43.9878C29.6568 43.9878 29.6943 43.9878 29.7319 43.9878C29.7788 43.9878 29.8164 43.9878 29.8633 43.9878C29.882 43.9878 29.9008 43.9878 29.9196 43.9878C29.9384 43.9878 29.9571 43.9878 29.9759 43.9878C30.0041 43.9878 30.0322 43.9878 30.0604 43.9878C30.0885 43.9878 30.1167 43.9878 30.1448 43.9878C30.1918 43.9878 30.2481 43.9878 30.295 43.9784C30.3419 43.9784 30.3888 43.969 30.4358 43.969C30.4921 43.9597 30.5578 43.9597 30.6141 43.9503C30.6516 43.9503 30.6798 43.9409 30.7173 43.9409C30.7924 43.9315 30.8675 43.9221 30.9332 43.9127C30.952 43.9127 30.9613 43.9033 30.9801 43.9033C32.2659 43.6875 33.439 43.0775 34.3775 42.1296C35.2972 41.1911 35.8885 40.0179 36.095 38.7509C36.095 38.7322 36.1043 38.7228 36.1043 38.704C36.1137 38.6289 36.1231 38.5539 36.1325 38.4788C36.1419 38.4412 36.1419 38.4131 36.1419 38.3755C36.1513 38.3098 36.1513 38.2535 36.1607 38.1878C36.1607 38.1409 36.17 38.094 36.17 38.0471C36.17 37.9908 36.1794 37.9438 36.1794 37.8875C36.1794 37.8687 36.1794 37.85 36.1794 37.8312C36.1794 37.8031 36.1794 37.7655 36.1794 37.7374C36.1794 37.7092 36.1794 37.6717 36.1794 37.6435C36.1794 37.6247 36.1794 37.606 36.1794 37.5778C36.1794 37.5309 36.1794 37.4746 36.17 37.4276C36.17 37.3807 36.17 37.3338 36.1607 37.2869C36.1607 37.2306 36.1513 37.1649 36.1419 37.1086C36.1419 37.071 36.1325 37.0335 36.1325 37.0053C36.1231 36.9302 36.1137 36.8552 36.1043 36.7801C36.1043 36.7613 36.095 36.7425 36.095 36.7238C35.8885 35.4568 35.2972 34.2836 34.3775 33.3451C33.4484 32.3972 32.2659 31.7872 30.9801 31.5714C30.9613 31.5714 30.952 31.562 30.9332 31.562C30.8581 31.5526 30.783 31.5432 30.7079 31.5338C30.6704 31.5338 30.6422 31.5244 30.6047 31.5244C30.5484 31.5151 30.4827 31.5151 30.4264 31.5057C30.3795 31.5057 30.3325 31.4963 30.2856 31.4963C30.2293 31.4963 30.1824 31.4869 30.1261 31.4869C30.0979 31.4869 30.0698 31.4869 30.0416 31.4869C30.0134 31.4869 29.9853 31.4869 29.9571 31.4869C29.9384 31.4869 29.9196 31.4869 29.9008 31.4869C29.8821 31.4869 29.8633 31.4869 29.8445 31.4869C29.807 31.4869 29.7694 31.4869 29.7319 31.4869C29.685 31.4869 29.6474 31.4869 29.6005 31.4963C29.563 31.4963 29.516 31.4963 29.4785 31.5057C29.441 31.5057 29.394 31.5151 29.3565 31.5151C29.3189 31.5151 29.272 31.5244 29.2251 31.5244C29.1876 31.5244 29.15 31.5338 29.1125 31.5338C29.0655 31.5432 29.0186 31.5432 28.9717 31.5526C28.9435 31.562 28.906 31.562 28.8778 31.5714C28.8309 31.5808 28.784 31.5901 28.7371 31.5995C28.7089 31.6089 28.6808 31.6089 28.6526 31.6183C28.5963 31.6277 28.5494 31.6371 28.4931 31.6558C28.4649 31.6652 28.4461 31.6652 28.418 31.6746C28.3617 31.684 28.3054 31.7028 28.2491 31.7121C28.2303 31.7215 28.2115 31.7215 28.1927 31.7309C28.1364 31.7497 28.0801 31.7685 28.0144 31.7872C27.9957 31.7966 27.9863 31.7966 27.9675 31.806C27.9018 31.8248 27.8455 31.8435 27.7798 31.8717C27.7704 31.8717 27.761 31.8811 27.7516 31.8811C27.6859 31.9092 27.6203 31.928 27.5546 31.9562C27.5452 31.9562 27.5452 31.9562 27.5452 31.9655C27.1041 32.1439 26.6817 32.3691 26.2876 32.6507V26.297H32.6037C33.2419 26.297 33.8238 25.9497 34.1147 25.3772C34.415 24.8047 34.3681 24.1196 33.9927 23.5941C33.4484 22.8245 33.1668 21.9235 33.1668 20.9756C33.1668 19.7462 33.6455 18.5918 34.5277 17.7284C35.4005 16.865 36.5642 16.3957 37.7937 16.4145C40.215 16.452 42.2234 18.451 42.2797 20.863C42.2985 21.8484 42.0169 22.7869 41.4445 23.5941C41.0784 24.1196 41.0315 24.7953 41.3224 25.3678C41.6134 25.9309 42.1953 26.2876 42.8334 26.2876H49.1684V26.297ZM25.4992 41.3412C24.9361 41.6322 24.5795 42.214 24.5795 42.8522V42.8616V49.1777H5.98767C3.63202 49.1777 1.70808 47.2632 1.70808 44.8982V26.297H8.01485C8.01485 26.297 8.01485 26.3063 8.00546 26.3063C7.95854 26.372 7.91161 26.4377 7.87407 26.5034C7.8553 26.5316 7.83653 26.5597 7.81776 26.5879C7.78961 26.6254 7.77083 26.663 7.74268 26.7099C7.72391 26.7474 7.69576 26.785 7.67698 26.8225C7.65821 26.8507 7.63944 26.8882 7.62067 26.9164C7.59252 26.9633 7.57375 27.0102 7.54559 27.0478C7.52682 27.0759 7.51744 27.1041 7.50805 27.1228C7.48928 27.1698 7.46113 27.2261 7.44236 27.273C7.43297 27.2918 7.42359 27.3199 7.40482 27.3387C7.38605 27.395 7.35789 27.4419 7.33912 27.4982C7.32974 27.517 7.32035 27.5452 7.31097 27.5639C7.2922 27.6203 7.27343 27.6766 7.24527 27.7235C7.23589 27.7423 7.2265 27.761 7.21712 27.7892C7.19835 27.8455 7.17958 27.9018 7.16081 27.9581C7.15142 27.9769 7.15142 27.9957 7.14204 28.0238C7.12327 28.0801 7.1045 28.1364 7.09511 28.1927C7.08572 28.2115 7.08573 28.2397 7.07634 28.2584C7.05757 28.3147 7.04818 28.3711 7.0388 28.418C7.02941 28.4461 7.02942 28.4649 7.02003 28.4931C7.01064 28.5494 7.00126 28.5963 6.98249 28.6526C6.9731 28.6808 6.9731 28.7089 6.96372 28.7371C6.95433 28.784 6.94495 28.8403 6.93556 28.8872C6.92618 28.9154 6.92618 28.9435 6.91679 28.9811C6.90741 29.028 6.90741 29.0749 6.89802 29.1312C6.89802 29.1688 6.88864 29.1969 6.88864 29.2345C6.88864 29.2814 6.87925 29.3283 6.87925 29.3753C6.87925 29.4128 6.86987 29.4503 6.86987 29.4879C6.86987 29.5348 6.86048 29.5723 6.86048 29.6193C6.86048 29.6568 6.86048 29.7037 6.8511 29.7413C6.8511 29.7788 6.8511 29.8257 6.8511 29.8633C6.8511 29.8821 6.8511 29.9008 6.8511 29.9196C6.8511 29.9384 6.8511 29.9571 6.8511 29.9759C6.8511 30.0041 6.8511 30.0322 6.8511 30.0604C6.8511 30.0885 6.8511 30.1167 6.8511 30.1448C6.8511 30.2011 6.8511 30.2481 6.86048 30.3044C6.86048 30.3513 6.86987 30.3982 6.86987 30.4452C6.87925 30.5015 6.87925 30.5672 6.88864 30.6235C6.88864 30.661 6.89802 30.6892 6.89802 30.7267C6.90741 30.8018 6.91679 30.8769 6.92618 30.9519C6.92618 30.9613 6.93556 30.9801 6.93556 30.9895C7.15142 32.2752 7.76145 33.4484 8.70934 34.3869C9.50707 35.1658 10.4737 35.7102 11.5249 35.9823C11.5249 35.9823 11.5249 35.9823 11.5342 35.9823C11.6187 36.0011 11.7032 36.0199 11.7876 36.0387C11.8158 36.048 11.8346 36.048 11.8627 36.0574C11.9284 36.0668 11.9941 36.0856 12.0598 36.095C12.0974 36.1044 12.1443 36.1044 12.1818 36.1137C12.2381 36.1231 12.2851 36.1325 12.3414 36.1325C12.3977 36.1419 12.454 36.1419 12.5103 36.1513C12.5572 36.1513 12.5948 36.1607 12.6417 36.1607C12.7074 36.1607 12.7637 36.17 12.8294 36.17C12.8669 36.17 12.9139 36.17 12.9514 36.1794C12.9702 36.1794 12.9983 36.1794 13.0265 36.1794C13.0546 36.1794 13.0922 36.1794 13.1203 36.1794C13.1391 36.1794 13.1485 36.1794 13.1672 36.1794C13.186 36.1794 13.1954 36.1794 13.2142 36.1794C13.2517 36.1794 13.2799 36.1794 13.3174 36.1794C13.3737 36.1794 13.4206 36.1794 13.477 36.17C13.5145 36.17 13.5614 36.1607 13.599 36.1607C13.6647 36.1513 13.7304 36.1513 13.7867 36.1419C13.8148 36.1419 13.8336 36.1325 13.8617 36.1325C13.9462 36.1231 14.0213 36.1137 14.1058 36.095H14.1151C15.3915 35.8885 16.574 35.2972 17.5125 34.3775C18.4604 33.4484 19.0705 32.2659 19.2863 30.9801C19.2863 30.9613 19.2863 30.952 19.2957 30.9332C19.3051 30.8581 19.3145 30.783 19.3239 30.7173C19.3239 30.6798 19.3332 30.6516 19.3332 30.6141C19.3426 30.5578 19.3426 30.4921 19.352 30.4358C19.352 30.3888 19.3614 30.3419 19.3614 30.295C19.3614 30.2481 19.3708 30.1918 19.3708 30.1448C19.3708 30.1167 19.3708 30.0885 19.3708 30.0604C19.3708 30.0322 19.3708 30.0041 19.3708 29.9759C19.3708 29.9571 19.3708 29.9384 19.3708 29.9196C19.3708 29.9008 19.3708 29.8821 19.3708 29.8633C19.3708 29.8257 19.3708 29.7788 19.3708 29.7413C19.3708 29.7037 19.3708 29.6662 19.3708 29.6193C19.3708 29.5723 19.3708 29.5348 19.3614 29.4879C19.3614 29.4503 19.352 29.4128 19.352 29.3846C19.352 29.3377 19.3426 29.2908 19.3426 29.2439C19.3426 29.2157 19.3332 29.1782 19.3332 29.15C19.3239 29.1031 19.3239 29.0468 19.3145 28.9999C19.3145 28.9717 19.3051 28.9435 19.3051 28.9154C19.2957 28.8591 19.2863 28.8122 19.2769 28.7558C19.2769 28.7277 19.2675 28.7089 19.2582 28.6808C19.2488 28.6245 19.23 28.5681 19.2206 28.5118C19.2112 28.4931 19.2112 28.4743 19.2018 28.4555C19.1925 28.3992 19.1737 28.3335 19.1549 28.2772C19.1549 28.2584 19.1455 28.249 19.1455 28.2303C19.1268 28.1646 19.108 28.1083 19.0892 28.0426C19.0892 28.0332 19.0798 28.0144 19.0798 28.005C19.0611 27.9393 19.0329 27.8736 19.0141 27.808C19.0141 27.7986 19.0048 27.7892 19.0048 27.7798C18.9766 27.7141 18.9578 27.6484 18.9297 27.5733V27.5639C18.7514 27.1228 18.5261 26.7005 18.2446 26.3063H24.5513V32.6225C24.5513 33.2607 24.908 33.8426 25.4711 34.1335C26.0436 34.4244 26.7193 34.3775 27.2448 34.0115C27.3481 33.9458 27.4419 33.8801 27.5452 33.8144C27.5639 33.805 27.5827 33.7862 27.6109 33.7769C27.639 33.7581 27.6672 33.7393 27.7047 33.7299C27.7329 33.7112 27.761 33.7018 27.7892 33.683C27.8173 33.6736 27.8361 33.6549 27.8643 33.6455C27.8924 33.6267 27.9206 33.6173 27.9581 33.5985C27.9769 33.5892 28.005 33.5798 28.0238 33.5704C28.052 33.561 28.0895 33.5422 28.1177 33.5328C28.1364 33.5235 28.1646 33.5141 28.1834 33.5047C28.2115 33.4953 28.249 33.4765 28.2772 33.4672C28.296 33.4578 28.3241 33.4484 28.3523 33.439C28.3804 33.4296 28.418 33.4202 28.4461 33.4108C28.4743 33.4015 28.4931 33.3921 28.5212 33.3827C28.5494 33.3733 28.5869 33.3639 28.6151 33.3545C28.6432 33.3451 28.662 33.3358 28.6901 33.3358C28.7183 33.3264 28.7465 33.317 28.784 33.317C28.8122 33.3076 28.8403 33.3076 28.8685 33.2982C28.8966 33.2888 28.9248 33.2888 28.9529 33.2794C28.9811 33.2701 29.0092 33.2701 29.0374 33.2607C29.0655 33.2513 29.0937 33.2513 29.1219 33.2419C29.15 33.2325 29.1876 33.2325 29.2157 33.2231C29.2439 33.2231 29.272 33.2138 29.3002 33.2138C29.3283 33.2138 29.3659 33.2044 29.394 33.2044C29.4222 33.2044 29.441 33.195 29.4691 33.195C29.5066 33.195 29.5348 33.1856 29.5723 33.1856C29.6005 33.1856 29.6287 33.1856 29.6474 33.1856C29.685 33.1856 29.7131 33.1856 29.7507 33.1856C29.7788 33.1856 29.807 33.1856 29.8257 33.1856C29.8539 33.1856 29.882 33.1856 29.9102 33.1856C29.9477 33.1856 29.9947 33.1856 30.0322 33.1856C30.0698 33.1856 30.1167 33.1856 30.1542 33.195C30.1824 33.195 30.2105 33.195 30.2387 33.2044C30.295 33.2044 30.3419 33.2137 30.3982 33.2231C30.4076 33.2231 30.417 33.2231 30.4264 33.2231C32.4817 33.4859 34.1335 35.1565 34.3869 37.2118C34.3869 37.2212 34.3869 37.2399 34.3869 37.2493C34.3963 37.3056 34.3963 37.362 34.4057 37.4089C34.4057 37.437 34.4057 37.4746 34.415 37.5027C34.415 37.5403 34.415 37.5872 34.4244 37.6247C34.4244 37.6623 34.4244 37.6998 34.4244 37.7374C34.4244 37.7749 34.4244 37.8124 34.4244 37.85C34.4244 37.8969 34.4244 37.9344 34.415 37.972C34.415 38.0001 34.415 38.0283 34.4057 38.0564C34.4057 38.1128 34.3963 38.1691 34.3869 38.2254C34.3869 38.2348 34.3869 38.2441 34.3869 38.2535C34.1429 40.3089 32.4817 41.9794 30.4358 42.2422C30.4264 42.2422 30.417 42.2422 30.3982 42.2422C30.3419 42.2516 30.295 42.2516 30.2387 42.261C30.2105 42.261 30.1824 42.2703 30.1448 42.2703C30.1073 42.2703 30.0604 42.2703 30.0228 42.2797C29.9853 42.2797 29.9384 42.2797 29.9008 42.2797C29.8727 42.2797 29.8445 42.2797 29.8164 42.2797C29.7976 42.2797 29.7694 42.2797 29.7507 42.2797C29.7131 42.2797 29.6756 42.2797 29.638 42.2797C29.6193 42.2797 29.6005 42.2797 29.5817 42.2797C29.5442 42.2797 29.4973 42.2703 29.4597 42.2703C29.441 42.2703 29.4222 42.2703 29.4034 42.261C29.3659 42.261 29.3189 42.2516 29.2814 42.2422C29.2626 42.2422 29.2439 42.2422 29.2345 42.2328C29.1876 42.2234 29.15 42.2234 29.1125 42.214C29.0937 42.214 29.0749 42.2046 29.0562 42.2046C29.0186 42.1953 28.9717 42.1859 28.9342 42.1765C28.9154 42.1765 28.8966 42.1671 28.8778 42.1671C28.8403 42.1577 28.8028 42.1483 28.7652 42.139C28.7465 42.1296 28.7277 42.1296 28.7089 42.1202C28.6714 42.1108 28.6338 42.1014 28.5963 42.092C28.5775 42.0826 28.5494 42.0826 28.5306 42.0733C28.4931 42.0639 28.4649 42.0545 28.4274 42.0357C28.4086 42.0263 28.3804 42.0169 28.3617 42.0169C28.3335 42.0076 28.296 41.9982 28.2678 41.9794C28.249 41.97 28.2209 41.9606 28.1927 41.9512C28.1646 41.9419 28.127 41.9231 28.0989 41.9137C28.0707 41.9043 28.052 41.8949 28.0238 41.8856C27.9957 41.8762 27.9675 41.8574 27.9393 41.848C27.9112 41.8386 27.8924 41.8292 27.8643 41.8105C27.8361 41.7917 27.808 41.7823 27.7798 41.7635C27.761 41.7542 27.7329 41.7354 27.7141 41.726C27.6859 41.7072 27.6578 41.6885 27.6202 41.6791C27.6015 41.6697 27.5827 41.6509 27.5546 41.6415C27.517 41.6228 27.4889 41.604 27.4513 41.5758C27.4325 41.5665 27.4138 41.5571 27.395 41.5477C27.3481 41.5195 27.3012 41.482 27.2542 41.4538C27.2542 41.4538 27.2448 41.4538 27.2448 41.4445C26.7568 41.0878 26.0717 41.0409 25.4992 41.3412ZM1.70808 5.99706C1.70808 3.64141 3.63202 1.71747 5.98767 1.71747H24.5795V8.03362C23.519 7.2922 22.2708 6.89802 20.9756 6.89802C19.2863 6.89802 17.7002 7.56437 16.5083 8.76565C15.3164 9.96694 14.6782 11.5624 14.7064 13.2611C14.7346 14.8847 15.3821 16.4145 16.5271 17.5782C17.6815 18.742 19.2018 19.3989 20.8255 19.4365C22.1769 19.4646 23.472 19.0705 24.5701 18.3009V24.6076H18.254C17.6158 24.6076 17.0339 24.9643 16.743 25.5274C16.452 26.0999 16.4989 26.7756 16.865 27.3012C16.9025 27.3481 16.9307 27.4044 16.9682 27.4513C16.9964 27.4982 17.0339 27.5452 17.062 27.6015C17.0808 27.6296 17.0902 27.6578 17.109 27.6859C17.1184 27.7141 17.1371 27.7329 17.1465 27.761C17.1653 27.7986 17.1841 27.8267 17.2028 27.8643C17.2122 27.883 17.2216 27.9018 17.231 27.9206C17.2498 27.9581 17.2685 27.9957 17.2873 28.0332C17.2967 28.052 17.3061 28.0613 17.3061 28.0801C17.3248 28.1177 17.3436 28.1552 17.353 28.1927C17.3624 28.2115 17.3624 28.2209 17.3718 28.2397C17.3905 28.2772 17.3999 28.3241 17.4187 28.3617C17.4281 28.3804 17.4281 28.3898 17.4375 28.4086C17.4562 28.4461 17.4656 28.4931 17.475 28.5306C17.4844 28.5494 17.4844 28.5588 17.4938 28.5775C17.5031 28.6151 17.5219 28.662 17.5313 28.6995C17.5313 28.7183 17.5407 28.7277 17.5501 28.7465C17.5595 28.784 17.5688 28.8215 17.5782 28.8685C17.5782 28.8872 17.5876 28.906 17.5876 28.9248C17.597 28.9623 17.6064 28.9999 17.6158 29.0374C17.6158 29.0562 17.6252 29.0749 17.6252 29.0937C17.6345 29.1312 17.6345 29.1688 17.6439 29.2063C17.6439 29.2251 17.6533 29.2533 17.6533 29.272C17.6627 29.3096 17.6627 29.3377 17.6721 29.3753C17.6721 29.4034 17.6815 29.4222 17.6815 29.4503C17.6815 29.4879 17.6909 29.516 17.6909 29.5536C17.6909 29.5817 17.6908 29.6099 17.7002 29.638C17.7002 29.6662 17.7096 29.7037 17.7096 29.7319C17.7096 29.76 17.7096 29.7882 17.7096 29.8164C17.7096 29.8445 17.7096 29.8727 17.7096 29.9102C17.7096 29.9384 17.7096 29.9665 17.7096 29.9853C17.7096 30.0322 17.7096 30.0698 17.7096 30.1167C17.7096 30.1542 17.7096 30.2011 17.7002 30.2387C17.7002 30.2668 17.7002 30.295 17.6909 30.3325C17.6909 30.3888 17.6815 30.4358 17.6721 30.4921C17.6721 30.5015 17.6721 30.5109 17.6721 30.5296C17.4093 32.5756 15.7481 34.2367 13.6928 34.4807C13.674 34.4807 13.6553 34.4807 13.6365 34.4901C13.5896 34.4995 13.5427 34.4995 13.4863 34.4995C13.4488 34.4995 13.4206 34.4995 13.3831 34.5089C13.3456 34.5089 13.308 34.5089 13.2705 34.5089C13.2329 34.5089 13.1954 34.5089 13.1579 34.5089C13.1203 34.5089 13.0828 34.5089 13.0452 34.5089C13.0077 34.5089 12.9702 34.5089 12.9232 34.4995C12.8951 34.4995 12.8575 34.4995 12.8294 34.4901C12.7731 34.4901 12.7168 34.4807 12.6698 34.4713C12.6605 34.4713 12.6417 34.4713 12.6323 34.4713C10.577 34.2273 8.90643 32.5662 8.64365 30.5109C8.64365 30.5015 8.64365 30.4921 8.64365 30.4827C8.63426 30.4264 8.63426 30.3795 8.62488 30.3232C8.62488 30.295 8.62488 30.2668 8.61549 30.2387C8.61549 30.2011 8.60611 30.1542 8.60611 30.1167C8.60611 30.0791 8.60611 30.0322 8.60611 29.9947C8.60611 29.9665 8.60611 29.9384 8.60611 29.9102C8.60611 29.8821 8.60611 29.8539 8.60611 29.8257C8.60611 29.7976 8.60611 29.7694 8.60611 29.7319C8.60611 29.7037 8.60611 29.6756 8.61549 29.638C8.61549 29.6099 8.61549 29.5817 8.62488 29.5536C8.62488 29.5254 8.63426 29.4879 8.63426 29.4597C8.63426 29.4316 8.64365 29.4034 8.64365 29.3846C8.64365 29.3471 8.65303 29.3189 8.65303 29.2814C8.65303 29.2533 8.66242 29.2345 8.66242 29.2063C8.6718 29.1688 8.6718 29.1313 8.68119 29.1031C8.68119 29.0843 8.69057 29.0562 8.69057 29.0374C8.69996 28.9999 8.70934 28.9623 8.70934 28.9248C8.70934 28.906 8.71873 28.8872 8.72811 28.8685C8.7375 28.8309 8.74688 28.7934 8.75627 28.7558C8.76565 28.7371 8.76565 28.7183 8.77504 28.6995C8.78442 28.662 8.79381 28.6245 8.81258 28.5869C8.82196 28.5681 8.82196 28.5494 8.83135 28.54C8.84073 28.5025 8.8595 28.4649 8.86889 28.4274C8.87827 28.4086 8.87827 28.3992 8.88766 28.3804C8.90643 28.3429 8.91581 28.3054 8.93458 28.2678C8.94397 28.2491 8.95335 28.2303 8.95335 28.2209C8.97212 28.1834 8.98151 28.1458 9.00028 28.1083C9.00966 28.0895 9.01905 28.0707 9.02843 28.052C9.0472 28.0144 9.05659 27.9863 9.07536 27.9487C9.08474 27.93 9.09413 27.9112 9.10351 27.8924C9.12228 27.8643 9.13167 27.8267 9.15044 27.7986C9.15983 27.7704 9.1786 27.7516 9.18798 27.7235C9.20675 27.6953 9.21614 27.6672 9.23491 27.639C9.25368 27.6109 9.27245 27.5733 9.29122 27.5452C9.3006 27.5264 9.30999 27.5076 9.32876 27.4889C9.3663 27.4419 9.39445 27.3856 9.43199 27.3387C9.45076 27.3105 9.46015 27.2918 9.47892 27.2636C9.80739 26.7474 9.83555 26.0999 9.554 25.5555C9.26306 24.9924 8.68119 24.6358 8.043 24.6358H8.03362H1.70808V5.99706ZM43.9972 20.8442C43.9597 19.2206 43.3027 17.7002 42.139 16.5459C40.9752 15.3915 39.4454 14.7439 37.8218 14.7252C36.1231 14.697 34.537 15.3352 33.3264 16.5271C32.1251 17.719 31.4587 19.2957 31.4587 20.9944C31.4587 22.2895 31.8529 23.5378 32.6037 24.5983H26.2876V18.2727C26.2876 17.6345 25.9309 17.0527 25.3678 16.7617C24.7953 16.4708 24.1196 16.5177 23.5941 16.8837C22.7963 17.4468 21.8484 17.7378 20.863 17.7096C18.4417 17.6533 16.452 15.6449 16.4145 13.2236C16.3957 11.9941 16.865 10.8304 17.7284 9.95756C18.5918 9.08475 19.7462 8.59672 20.9756 8.59672C21.9235 8.59672 22.8245 8.88766 23.5941 9.42261C24.1196 9.79801 24.8047 9.84494 25.3772 9.54461C25.9403 9.25368 26.297 8.6718 26.297 8.03362V0H5.98767C2.68413 0 0 2.68413 0 5.98767V24.5795V26.297V44.8888C0 48.1923 2.68413 50.8764 5.98767 50.8764H24.5795H44.8888C48.1923 50.8764 50.8764 48.1923 50.8764 44.8888V24.5889H42.8522C43.6312 23.4908 44.0253 22.1957 43.9972 20.8442Z" fill="black" stroke="black" stroke-width="0.04" mask="url(#path-1-inside-1_159_33)"/>
</svg>
