<svg width="30" height="30" viewBox="0 0 30 30" fill="none" xmlns="http://www.w3.org/2000/svg">
<path d="M20.2501 3.16276L24.275 3.16277C26.5625 3.16277 28.4376 5.02521 28.4376 7.32521L28.4376 14.5752C28.4376 15.0877 28.0126 15.5127 27.5001 15.5127L20.2501 15.5127C17.8751 15.5127 16.0876 13.7252 16.0876 11.3502L16.0876 7.32521C16.1001 4.95021 17.8876 3.16276 20.2501 3.16276ZM26.5626 13.6253L26.5626 7.3127C26.5626 6.0502 25.5375 5.02525 24.275 5.02525L20.2501 5.02525C18.9251 5.02525 17.9626 5.9877 17.9626 7.3127L17.9626 11.3377C17.9626 12.6627 18.9251 13.6253 20.2501 13.6253L26.5626 13.6253Z" fill="white"/>
<path d="M27.5001 13.6255C28.0126 13.6255 28.4376 14.0505 28.4376 14.563C28.4376 22.3755 26.85 24.0129 22.3125 26.7004C21.8625 26.9629 21.2876 26.8129 21.0251 26.3754C20.7626 25.9254 20.9126 25.3505 21.3501 25.088C25.4001 22.688 26.5626 21.688 26.5626 14.563C26.5626 14.0505 26.9876 13.6255 27.5001 13.6255Z" fill="white"/>
<path d="M5.72463 3.16276L9.74959 3.16277C12.0371 3.16277 13.9121 5.02521 13.9121 7.32521L13.9121 14.5752C13.9121 15.0877 13.4871 15.5127 12.9746 15.5127L5.72462 15.5127C3.34962 15.5127 1.5621 13.7252 1.5621 11.3502L1.5621 7.32521C1.5621 4.95021 3.34963 3.16276 5.72463 3.16276ZM12.0246 13.6253L12.0246 7.3127C12.0246 6.0502 10.9996 5.02525 9.73708 5.02525L5.71211 5.02525C4.38711 5.02525 3.42459 5.9877 3.42459 7.3127L3.42459 11.3377C3.42459 12.6627 4.38711 13.6253 5.71211 13.6253L12.0246 13.6253Z" fill="white"/>
<path d="M12.9628 13.6255C13.4753 13.6255 13.9003 14.0505 13.9003 14.563C13.9003 22.3755 12.3127 24.0129 7.77524 26.7004C7.32524 26.9629 6.75028 26.8129 6.48778 26.3754C6.22528 25.9254 6.37529 25.3505 6.81279 25.088C10.8628 22.688 12.0253 21.688 12.0253 14.563C12.0253 14.0505 12.4503 13.6255 12.9628 13.6255Z" fill="white"/>
</svg>
