<svg width="63" height="43" viewBox="0 0 63 43" fill="none" xmlns="http://www.w3.org/2000/svg">
<g clip-path="url(#clip0_158_202)">
<path d="M44.6019 42.2181H18.7718C9.27424 42.2181 1.57501 34.6932 1.57501 25.4183V17.5815C1.57501 8.29902 9.27424 0.781738 18.7718 0.781738H27.413C36.9105 0.781738 44.6097 8.30663 44.6097 17.5815V42.2181H44.6019ZM44.6019 42.2181H61.425V35.7052H44.6019V42.2181ZM61.425 36.0932V33.5215M53.0096 36.0932V38.0182M37.1985 21.4923C37.1985 29.1313 30.8772 35.3247 23.0846 35.3247C15.2919 35.3247 8.97063 29.1313 8.97063 21.4923C8.97063 13.8533 15.2919 7.6599 23.0846 7.6599C30.885 7.6599 37.1985 13.8533 37.1985 21.4923ZM23.0924 29.7933C18.4214 29.7933 14.6224 26.0651 14.6224 21.4923C14.6224 16.9119 18.4214 13.1913 23.0924 13.1913C27.7633 13.1913 31.5623 16.9196 31.5623 21.4923C31.5623 26.0727 27.7555 29.7933 23.0924 29.7933ZM49.6387 29.8618H44.6019V20.6173H49.6387V29.8618Z" stroke="black" stroke-width="1.6" stroke-miterlimit="10" stroke-linecap="round" stroke-linejoin="round"/>
</g>
<defs>
<clipPath id="clip0_158_202">
<rect width="63" height="43" fill="white"/>
</clipPath>
</defs>
</svg>
