<svg width="18" height="18" viewBox="0 0 18 18" fill="none" xmlns="http://www.w3.org/2000/svg">

<path d="M11.7 17.4H6.3C4.10918 17.4 2.73169 16.9582 1.88676 16.1132C1.04184 15.2683 0.6 13.8908 0.6 11.7V6.3C0.6 4.10918 1.04184 2.73169 1.88676 1.88676C2.73169 1.04184 4.10918 0.6 6.3 0.6H11.7C13.8908 0.6 15.2683 1.04184 16.1132 1.88676C16.9582 2.73169 17.4 4.10918 17.4 6.3V11.7C17.4 13.8908 16.9582 15.2683 16.1132 16.1132C15.2683 16.9582 13.8908 17.4 11.7 17.4Z" stroke="currentColor" stroke-width="1.2" stroke-linecap="round" stroke-linejoin="round"/>
<path d="M13.5 4.5L4.5 13.5" stroke="currentColor" stroke-width="1.2" stroke-linecap="round" stroke-linejoin="round"/>
<path d="M13.5 7.5V4.5H10.5" stroke="currentColor" stroke-width="1.2" stroke-linecap="round" stroke-linejoin="round"/>
<path d="M4.5 10.5V13.5H7.5" stroke="currentColor" stroke-width="1.2" stroke-linecap="round" stroke-linejoin="round"/>

</svg>
