<svg width="16" height="16" viewBox="0 0 16 16" fill="none" xmlns="http://www.w3.org/2000/svg">
<path d="M8.00001 12.6667C10.5773 12.6667 12.6667 10.5774 12.6667 8.00004C12.6667 5.42271 10.5773 3.33337 8.00001 3.33337C5.42268 3.33337 3.33334 5.42271 3.33334 8.00004C3.33334 10.5774 5.42268 12.6667 8.00001 12.6667Z" stroke="#111111" stroke-width="1.2" stroke-linecap="round" stroke-linejoin="round"/>
<path d="M13.236 13.236L13.1407 13.1406M13.1407 2.85929L13.236 2.76396L13.1407 2.85929ZM2.76399 13.236L2.85932 13.1406L2.76399 13.236ZM7.99999 0.725293V0.666626V0.725293ZM7.99999 15.3333V15.2746V15.3333ZM0.725323 7.99996H0.666656H0.725323ZM15.3333 7.99996H15.2747H15.3333ZM2.85932 2.85929L2.76399 2.76396L2.85932 2.85929Z" stroke="#111111" stroke-width="1.2" stroke-linecap="round" stroke-linejoin="round"/>
</svg>
