<svg width="30" height="30" viewBox="0 0 30 30" fill="none" xmlns="http://www.w3.org/2000/svg">
<path fill-rule="evenodd" clip-rule="evenodd" d="M2.10883 2.10883C0 4.21766 0 7.61178 0 14.4V15.6C0 22.3882 0 25.7823 2.10883 27.8912C4.21766 30 7.61178 30 14.4 30H15.6C22.3882 30 25.7823 30 27.8912 27.8912C30 25.7823 30 22.3882 30 15.6V14.4C30 7.61178 30 4.21766 27.8912 2.10883C25.7823 0 22.3882 0 15.6 0H14.4C7.61178 0 4.21766 0 2.10883 2.10883ZM5.06255 9.12506C5.22505 16.9251 9.12501 21.6125 15.9625 21.6125H16.3501V17.15C18.8626 17.4 20.7624 19.2375 21.5249 21.6125H25.0751C24.1001 18.0625 21.5374 16.1 19.9374 15.35C21.5374 14.425 23.7874 12.1751 24.3249 9.12506H21.0998C20.3998 11.6001 18.3251 13.85 16.3501 14.0625V9.12506H13.125V17.775C11.125 17.275 8.60003 14.8501 8.48753 9.12506H5.06255Z" fill="currentColor"/>
</svg>
