<svg width="18" height="18" viewBox="0 0 18 18" fill="none" xmlns="http://www.w3.org/2000/svg">
<path d="M11.1333 6.28188V5.56421C11.1333 3.33645 9.60471 2.48422 7.74379 3.66538L5.58748 5.03344C5.35117 5.17548 5.07794 5.25771 4.80471 5.25771H3.74871C2.27179 5.25771 1.53333 6.00528 1.53333 7.50042V10.4907C1.53333 11.9859 2.27179 12.7334 3.74871 12.7334H5.22563" stroke="#111111" stroke-width="1.2" stroke-linecap="round" stroke-linejoin="round"/>
<path d="M7.93335 14.3448C9.69021 15.5068 11.1333 14.6611 11.1333 12.4769V9.80005" stroke="#111111" stroke-width="1.2" stroke-linecap="round" stroke-linejoin="round"/>
<path d="M14.1833 7.13342C14.9055 8.70181 14.6889 10.5328 13.5333 11.9334" stroke="#111111" stroke-width="1.2" stroke-linecap="round" stroke-linejoin="round"/>
<path d="M15.8406 5.80005C16.9252 8.40939 16.6006 11.4599 14.8667 13.8" stroke="#111111" stroke-width="1.2" stroke-linecap="round" stroke-linejoin="round"/>
<path d="M16.4667 1.53345L1.53333 16.4668" stroke="#111111" stroke-width="1.2" stroke-linecap="round" stroke-linejoin="round"/>
</svg>
