<svg width="30" height="20" viewBox="0 0 30 20" fill="none" xmlns="http://www.w3.org/2000/svg">
<path d="M12.484 0.00615867C7.39113 0.0979987 4.33259 0.298678 3.17271 0.618418C1.99141 0.944958 0.999253 1.89738 0.653073 3.03006C0.199833 4.5268 -0.0821061 8.19 0.0213938 11.2718C0.114174 14.0338 0.321173 15.874 0.653073 16.976C0.999253 18.1088 1.99141 19.0612 3.17271 19.3878C4.59313 19.779 8.85437 20 15 20C21.1456 20 25.4068 19.779 26.8272 19.3878C28.0086 19.0612 29.0008 18.1088 29.347 16.976C29.8002 15.4794 30.0822 11.816 29.9786 8.7344C29.8858 5.9724 29.6788 4.1322 29.347 3.03006C29.0008 1.89738 28.0086 0.944958 26.8272 0.618418C25.8316 0.346298 23.6546 0.172838 19.6752 0.0537775C18.5224 0.0197575 13.576 -0.0142413 12.484 0.00615867ZM15.8672 7.85C17.98 9.0098 19.7252 9.9724 19.7394 9.986C19.7608 10.003 12.0628 14.272 12.0022 14.272C11.9914 14.272 11.9842 12.35 11.9842 10.003C11.9842 7.656 11.9914 5.7342 12.0022 5.7342C12.0128 5.7342 13.7508 6.6866 15.8672 7.85Z" fill="currentColor"/>
</svg>
