<svg width="27" height="20" viewBox="0 0 27 20" fill="none" xmlns="http://www.w3.org/2000/svg">
<g clip-path="url(#clip0_228_1310)">
<path d="M26.1395 15.7102C26.0711 15.595 25.6483 14.6702 23.6135 12.7695C21.4834 10.7793 21.7695 11.1024 24.3352 7.66104C25.8978 5.56516 26.5226 4.28524 26.3271 3.73807C26.1411 3.2165 24.9917 3.35409 24.9917 3.35409L21.1702 3.37649C21.1702 3.37649 20.8873 3.33809 20.6758 3.46448C20.4708 3.58928 20.3388 3.87726 20.3388 3.87726C20.3388 3.87726 19.7332 5.49957 18.9256 6.87869C17.2231 9.78892 16.5412 9.94251 16.263 9.76172C15.616 9.34095 15.7781 8.06902 15.7781 7.16667C15.7781 4.34603 16.2026 3.1701 14.9499 2.86612C14.5334 2.76532 14.2282 2.69813 13.1647 2.68693C11.8008 2.67253 10.6451 2.69173 9.99179 3.01331C9.55622 3.2277 9.2208 3.70607 9.42587 3.73327C9.67862 3.76687 10.2509 3.88846 10.5545 4.30444C10.9472 4.84041 10.9329 6.04674 10.9329 6.04674C10.9329 6.04674 11.1586 9.36654 10.4067 9.77932C9.89005 10.0625 9.18265 9.48494 7.66453 6.84349C6.8872 5.49157 6.29902 3.99565 6.29902 3.99565C6.29902 3.99565 6.18616 3.71727 5.98427 3.56848C5.73947 3.38769 5.3961 3.33009 5.3961 3.33009L1.76216 3.35249C1.76216 3.35249 1.21691 3.36849 1.01661 3.60688C0.83857 3.81966 1.0023 4.25804 1.0023 4.25804C1.0023 4.25804 3.84778 10.9569 7.06842 14.3343C10.0236 17.4301 13.3777 17.2269 13.3777 17.2269H14.8975C14.8975 17.2269 15.3569 17.1757 15.5905 16.9213C15.8067 16.6877 15.7988 16.2493 15.7988 16.2493C15.7988 16.2493 15.7686 14.1967 16.716 13.8943C17.6491 13.5967 18.8477 15.8782 20.1179 16.7565C21.078 17.4205 21.8077 17.2749 21.8077 17.2749L25.2048 17.2269C25.2048 17.2269 26.982 17.1165 26.1395 15.7102Z" fill="#444444"/>
</g>
<defs>
<clipPath id="clip0_228_1310">
<rect width="25.4325" height="18.8927" fill="white" transform="translate(0.933594 0.539551)"/>
</clipPath>
</defs>
</svg>
