<svg width="25" height="18" viewBox="0 0 25 18" fill="none" xmlns="http://www.w3.org/2000/svg">
<g clip-path="url(#clip0_228_1312)">
<path d="M23.7693 3.16009C23.5003 2.16154 22.7121 1.37439 21.7125 1.10551C19.8863 0.606445 12.5813 0.606445 12.5813 0.606445C12.5813 0.606445 5.27668 0.606445 3.45048 1.08659C2.47008 1.35518 1.66259 2.16168 1.39367 3.16009C0.913086 4.98392 0.913086 8.7663 0.913086 8.7663C0.913086 8.7663 0.913086 12.5678 1.39367 14.3725C1.66288 15.3709 2.45085 16.1581 3.45062 16.427C5.2959 16.9262 12.5816 16.9262 12.5816 16.9262C12.5816 16.9262 19.8863 16.9262 21.7125 16.446C22.7122 16.1773 23.5003 15.3901 23.7695 14.3917C24.25 12.5678 24.25 8.78551 24.25 8.78551C24.25 8.78551 24.2692 4.98392 23.7693 3.16009ZM10.2556 12.2606V5.27201L16.33 8.7663L10.2556 12.2606Z" fill="#444444"/>
</g>
<defs>
<clipPath id="clip0_228_1312">
<rect width="23.6786" height="17.7589" fill="white" transform="translate(0.754883 0.106445)"/>
</clipPath>
</defs>
</svg>
