<svg width="29" height="30" viewBox="0 0 29 30" fill="none" xmlns="http://www.w3.org/2000/svg">
<path d="M25.4222 19.9797C25.362 19.8754 24.99 19.0381 23.1998 17.3172C21.3257 15.5152 21.5774 15.8078 23.8348 12.692C25.2096 10.7944 25.7592 9.63555 25.5872 9.14014C25.4236 8.66792 24.4124 8.79249 24.4124 8.79249L21.0501 8.81277C21.0501 8.81277 20.8012 8.77801 20.6152 8.89244C20.4347 9.00543 20.3187 9.26617 20.3187 9.26617C20.3187 9.26617 19.7858 10.735 19.0753 11.9837C17.5774 14.6186 16.9774 14.7576 16.7326 14.5939C16.1634 14.213 16.3061 13.0614 16.3061 12.2444C16.3061 9.69059 16.6795 8.62591 15.5774 8.35068C15.211 8.25942 14.9424 8.19858 14.0068 8.18844C12.8068 8.17541 11.79 8.19279 11.2152 8.48395C10.8319 8.67806 10.5368 9.11117 10.7173 9.1358C10.9396 9.16622 11.4431 9.27631 11.7103 9.65293C12.0557 10.1382 12.0431 11.2304 12.0431 11.2304C12.0431 11.2304 12.2417 14.2362 11.5802 14.6099C11.1256 14.8663 10.5033 14.3433 9.1676 11.9518C8.48369 10.7278 7.9662 9.37336 7.9662 9.37336C7.9662 9.37336 7.8669 9.12131 7.68928 8.9866C7.47389 8.82291 7.1718 8.77076 7.1718 8.77076L3.97459 8.79104C3.97459 8.79104 3.49487 8.80553 3.31865 9.02136C3.162 9.21402 3.30606 9.61092 3.30606 9.61092C3.30606 9.61092 5.80956 15.676 8.64313 18.7339C11.2431 21.5369 14.1942 21.3529 14.1942 21.3529H15.5312C15.5312 21.3529 15.9354 21.3065 16.141 21.0762C16.3312 20.8647 16.3243 20.4678 16.3243 20.4678C16.3243 20.4678 16.2977 18.6093 17.1312 18.3356C17.9522 18.0661 19.0068 20.1318 20.1243 20.927C20.969 21.5282 21.611 21.3963 21.611 21.3963L24.5998 21.3529C24.5998 21.3529 26.1634 21.2529 25.4222 19.9797Z" fill="white"/>
</svg>
