<svg width="23" height="23" viewBox="0 0 23 23" fill="none" xmlns="http://www.w3.org/2000/svg">
<g clip-path="url(#clip0_10202_1115)">
<path fill-rule="evenodd" clip-rule="evenodd" d="M11.4304 0.297119C5.3663 0.297119 0.433594 5.2312 0.433594 11.297C0.433594 13.7027 1.20939 15.9336 2.52818 17.7445L1.15757 21.8314L5.38563 20.4801C7.12462 21.6312 9.19987 22.2971 11.4368 22.2971C17.5009 22.2971 22.4336 17.3629 22.4336 11.2972C22.4336 5.2314 17.5009 0.297301 11.4368 0.297301L11.4304 0.297119ZM8.35948 5.88458C8.14619 5.37374 7.98454 5.3544 7.66141 5.34126C7.55139 5.33487 7.42877 5.32849 7.29284 5.32849C6.87247 5.32849 6.43293 5.45132 6.16782 5.72289C5.84469 6.05268 5.04297 6.82213 5.04297 8.40009C5.04297 9.97805 6.19373 11.5042 6.34882 11.7177C6.51047 11.9309 8.59229 15.216 11.8247 16.5549C14.3524 17.6025 15.1025 17.5054 15.6778 17.3826C16.5182 17.2015 17.5721 16.5804 17.8372 15.8305C18.1023 15.0802 18.1023 14.44 18.0245 14.3042C17.947 14.1684 17.7335 14.091 17.4104 13.9292C17.0873 13.7674 15.5161 12.9914 15.2187 12.8879C14.9277 12.7781 14.6498 12.8169 14.4302 13.1274C14.1198 13.5607 13.816 14.0005 13.5703 14.2655C13.3763 14.4725 13.0594 14.4984 12.7944 14.3883C12.4388 14.2398 11.4434 13.8903 10.2149 12.7974C9.26447 11.9504 8.61803 10.8964 8.43065 10.5796C8.24308 10.2564 8.41129 10.0686 8.55981 9.89409C8.72146 9.69351 8.87657 9.55134 9.03823 9.36372C9.19988 9.17629 9.29038 9.07919 9.39384 8.85927C9.50386 8.64592 9.42612 8.426 9.34857 8.2643C9.27103 8.1026 8.62459 6.52464 8.35948 5.88458Z" fill="white"/>
</g>
<defs>
<clipPath id="clip0_10202_1115">
<rect width="22" height="22" fill="white" transform="translate(0.433594 0.297119)"/>
</clipPath>
</defs>
</svg>
