<svg width="22" height="22" viewBox="0 0 22 22" fill="none" xmlns="http://www.w3.org/2000/svg">
<path d="M20.446 6.5788C20.2188 5.73538 19.5531 5.07051 18.7087 4.84341C17.1662 4.42188 10.9962 4.42188 10.9962 4.42188C10.9962 4.42188 4.82631 4.42188 3.28382 4.82743C2.45573 5.05429 1.77369 5.7355 1.54655 6.5788C1.14062 8.11929 1.14062 11.3141 1.14062 11.3141C1.14062 11.3141 1.14062 14.5249 1.54655 16.0493C1.77393 16.8926 2.43949 17.5575 3.28394 17.7846C4.84255 18.2063 10.9964 18.2063 10.9964 18.2063C10.9964 18.2063 17.1662 18.2063 18.7087 17.8007C19.5532 17.5737 20.2188 16.9089 20.4462 16.0655C20.852 14.5249 20.852 11.3303 20.852 11.3303C20.852 11.3303 20.8683 8.11929 20.446 6.5788ZM9.03173 14.2655V8.36262L14.1625 11.3141L9.03173 14.2655Z" fill="#444444"/>
</svg>
