<svg width="75" height="75" viewBox="0 0 75 75" fill="none" xmlns="http://www.w3.org/2000/svg">
<g clip-path="url(#clip0_8120_18131)">
<path fill-rule="evenodd" clip-rule="evenodd" d="M49.6672 26.5006C48.6246 25.5865 47.125 25.6073 46.2646 25.8729C46.8283 25.1808 48.1409 24.6133 48.5278 24.5445C48.8225 24.6549 49.6672 25.5231 49.6672 26.5006ZM52.9962 22.7153C52.3106 19.0474 43.7862 21.4777 39.4933 19.9197C39.411 20.989 40.8149 22.7023 42.1577 23.3364C39.8623 25.3284 37.8016 29.342 37.3858 34.2455C36.9712 29.342 34.9104 25.3284 32.6151 23.3364C33.9578 22.7023 35.3628 20.989 35.2795 19.9197C30.9866 21.4777 22.4621 19.0474 21.7753 22.7153C21.6308 23.4915 22.0043 24.6746 22.4078 25.0147C22.4799 24.7687 22.8568 23.9639 24.0451 23.7835C30.0508 22.8761 35.0649 32.1322 30.5389 35.8746C30.4699 35.9314 30.5086 36.0365 30.6021 36.0365H44.1716C44.2639 36.0365 44.3029 35.9314 44.2351 35.8746C39.7077 32.1322 44.7219 22.8761 50.7276 23.7835C51.9169 23.9639 52.2925 24.7687 52.3649 25.0146C52.7684 24.6746 53.1418 23.4917 52.9962 22.7153ZM54.4569 14.2968C54.3491 13.9502 57.8704 13.9416 57.8704 16.1456C57.8704 17.6228 55.7641 18.3224 55.7641 19.8553C55.7641 20.5692 56.5322 21.0929 56.7679 21.0929C56.2253 18.6318 58.4686 19.9197 59.0743 20.38C57.8705 17.0704 60.5806 17.0913 60.3138 15.5738C60.1281 14.5132 57.7728 14.8336 56.9202 14.2968C55.4075 13.3445 53.6179 9.63922 52.4384 13.3445C54.6371 15.3859 53.3578 18.3902 50.5667 18.3902C50.5667 18.3902 50.551 18.8307 50.5766 18.8657C53.9057 18.7028 55.0661 16.2561 54.4569 14.2968ZM15.6173 20.38C16.2232 19.9197 18.4662 18.6318 17.925 21.0929C18.1595 21.0929 18.9275 20.5692 18.9275 19.8553C18.9275 18.3224 16.8211 17.6228 16.8211 16.1456C16.8211 13.9415 20.3426 13.9502 20.2346 14.2968C19.6266 16.256 20.7873 18.7029 24.1162 18.8657C24.1406 18.8307 24.1251 18.3902 24.1251 18.3902C21.3351 18.3902 20.0557 15.3857 22.2533 13.3445C21.0738 9.63922 19.2843 13.3445 17.7716 14.2968C16.9191 14.8337 14.5636 14.5132 14.378 15.5738C14.1122 17.0913 16.8211 17.0705 15.6173 20.38ZM25.0699 26.5005C26.1136 25.5863 27.6131 25.6072 28.4725 25.8728C27.911 25.1807 26.5962 24.6132 26.2104 24.5444C25.9158 24.6548 25.0699 25.523 25.0699 26.5005ZM38.9697 5.98196L37.3458 4.00195L35.7219 5.98196L37.3459 8.06581L38.9697 5.98196ZM48.24 11.9691L47.0851 10.5619L45.9314 11.9691L47.0851 13.3444L48.24 11.9691ZM57.6071 52.6427L56.1431 51.0935L54.6792 52.6427L56.1431 54.0017L57.6071 52.6427ZM28.7613 11.9689L27.6063 10.5617L26.4526 11.9689L27.6063 13.3443L28.7613 11.9689ZM25.4533 18.8655H29.7606C33.3819 18.8655 35.0115 16.6428 35.5039 14.7153H39.1887C39.6812 16.6429 41.3094 18.8656 44.9321 18.8656H49.2394C49.2394 18.8656 49.9928 17.8434 50.1817 17.3372C50.8621 15.5157 49.9928 14.6662 48.7246 14.6662L47.085 16.152L45.4455 14.6662C44.1772 14.6662 43.308 15.5157 43.9883 17.3372C44.0751 17.5702 44.283 17.9122 44.4796 18.2129C42.9512 18.0029 41.0004 16.9568 40.5724 14.7153C40.5724 14.7153 41.7017 12.9212 41.9853 12.1953C43.0035 9.58458 41.703 8.51732 39.8011 8.51732L37.3457 11.4038L34.8904 8.51732C32.9886 8.51732 31.688 9.58448 32.7073 12.1953C32.9898 12.9213 34.1202 14.7154 34.1202 14.7154C33.6911 16.9569 31.7404 18.003 30.212 18.213C30.4098 17.9123 30.6166 17.5702 30.7033 17.3374C31.3824 15.5158 30.5155 14.6663 29.246 14.6663L27.6065 16.1521L25.9671 14.6663C24.6978 14.6663 23.8307 15.5158 24.5099 17.3374C24.6988 17.8435 25.4533 18.8655 25.4533 18.8655ZM69.9851 32.2172C69.1535 32.6382 64.2762 34.9232 58.0282 34.078C58.0929 33.78 58.1478 33.4799 58.1927 33.1782C62.351 32.6808 65.7312 31.9756 67.8854 30.7773C70.3408 29.4107 71.4146 26.1483 70.1751 23.721C70.1431 23.6598 70.0542 23.649 70.0097 23.7002C69.3306 24.482 65.0599 29.1275 58.3318 30.5717C58.3145 30.2232 58.2826 29.8756 58.2362 29.5299C61.504 27.6766 64.6943 25.5412 66.2138 23.5887C68.5103 20.6366 68.299 16.8713 66.1138 14.9514C66.0911 14.9319 66.0611 14.9232 66.0315 14.9274C66.0019 14.9316 65.9756 14.9483 65.9592 14.9733C65.2679 16.1136 58.7966 26.5734 51.6915 31.0887C51.6048 31.1442 51.5174 31.1985 51.4293 31.2517C51.2258 31.3753 51.2036 31.6398 51.377 31.7973C52.1961 32.5396 52.7053 33.5728 52.7053 34.7198C52.7053 36.7139 51.168 38.3724 49.1361 38.7321C48.1034 38.9322 46.6127 38.8742 45.1811 38.401C45.1166 38.3801 45.05 38.4227 45.05 38.4873V44.8035C45.05 44.905 45.2046 44.9302 45.2411 44.8327C46.1114 42.5271 48.7168 42.0371 49.8563 42.0371C50.2664 44.5015 50.9989 46.5429 51.9504 47.6416C53.4996 49.427 56.0297 49.4019 57.1268 48.1675C57.1449 48.147 57.1527 48.1195 57.1479 48.0926C57.1431 48.0657 57.1263 48.0425 57.1023 48.0296C56.4577 47.6591 52.7695 45.3949 52.0313 41.6841C52.3228 41.5835 52.6072 41.4697 52.8796 41.3352C54.07 43.3055 55.8029 45.0602 57.1979 45.7304C59.5411 46.8545 61.6863 46.3077 62.6378 44.6623C62.6723 44.6043 62.6301 44.5322 62.56 44.5257C61.1105 44.4097 56.6621 43.1349 54.768 40.0288C54.9849 39.8297 55.1972 39.622 55.395 39.4012C57.3768 40.9099 60.1792 42.2438 62.1855 42.516C64.533 42.8353 67.193 42.0863 67.2575 39.3563C67.2586 39.3016 67.2097 39.2568 67.152 39.2602C66.3171 39.3104 60.7916 39.551 56.8545 37.291C56.9912 37.031 57.1188 36.7662 57.2368 36.4972C57.2368 36.4972 63.1859 37.9034 66.0047 37.4374C68.8059 36.9751 70.4465 34.8868 70.1297 32.2892C70.1208 32.2244 70.0452 32.1866 69.9851 32.2172ZM17.4546 36.4975C17.573 36.7666 17.7009 37.0313 17.838 37.2913C13.9021 39.5501 8.37885 39.3117 7.5408 39.2605C7.48188 39.2571 7.43298 39.3041 7.43403 39.3577C7.49984 42.0866 10.1586 42.8355 12.506 42.5163C14.5114 42.2441 17.3147 40.9102 19.2965 39.4015C19.4955 39.6223 19.7068 39.83 19.9233 40.029C18.0283 43.1349 13.581 44.4098 12.1315 44.5258C12.0615 44.5323 12.0203 44.6045 12.0538 44.6624C13.0053 46.3078 15.1505 46.8545 17.4948 45.7305C18.8888 45.0604 20.6216 43.3056 21.8121 41.3355C22.0854 41.4699 22.37 41.5836 22.6601 41.6842C21.922 45.395 18.234 47.6592 17.5892 48.0297C17.5654 48.0428 17.5488 48.066 17.544 48.0928C17.5393 48.1196 17.5469 48.1471 17.5647 48.1676C18.6619 49.402 21.1929 49.4271 22.7422 47.6417C23.6939 46.5429 24.4252 44.5017 24.8354 42.0373C25.9758 42.0373 28.5801 42.5273 29.4504 44.8329C29.4882 44.9303 29.6426 44.905 29.6426 44.8035V38.4873C29.6426 38.4228 29.5749 38.3802 29.5105 38.401C28.0788 38.8742 26.5883 38.9323 25.5567 38.7321C23.5238 38.3726 21.9865 36.714 21.9865 34.7198C21.9865 33.5727 22.4966 32.5385 23.3147 31.7961C23.4892 31.6397 23.4659 31.3751 23.2635 31.2516C23.1747 31.1984 23.0865 31.1441 22.999 31.0886C15.8984 26.5756 9.43033 16.1234 8.73342 14.9753C8.70103 14.9217 8.62331 14.9108 8.57546 14.9523C6.39352 16.8733 6.18123 20.6375 8.47768 23.5885C9.99718 25.541 13.1872 27.6764 16.4541 29.5296C16.408 29.8754 16.3765 30.223 16.3597 30.5714C9.63708 29.1283 5.36982 24.4903 4.68398 23.7032C4.63843 23.6496 4.54713 23.6606 4.5161 23.7218C3.27918 26.1501 4.35281 29.4103 6.80606 30.777C8.96022 31.9753 12.3404 32.6804 16.4987 33.1779C16.5436 33.4796 16.5985 33.7797 16.6632 34.0777C10.4219 34.9218 5.54658 32.6423 4.70853 32.218C4.64627 32.1863 4.57063 32.2257 4.5629 32.2913C4.2474 34.889 5.88674 36.9751 8.68787 37.4374C11.5056 37.9034 17.4546 36.4975 17.4546 36.4975ZM56.143 55.9969L53.9755 54.2914C53.1107 54.8064 52.4749 55.6244 52.2281 56.5831C50.9244 56.7657 47.3695 55.9763 47.7151 55.4528C51.6112 49.9729 48.6311 46.7104 45.0498 46.8919V50.5722C45.0498 51.754 44.0182 52.7117 42.7477 52.7117H40.2747C38.5006 52.7117 37.3457 54.495 37.3457 54.495C37.3457 54.495 36.191 52.7117 34.4169 52.7117H31.9437C30.6723 52.7117 29.6429 51.754 29.6429 50.5722V46.892C26.0615 46.7107 23.0791 49.9731 26.9764 55.4529C27.3187 55.971 23.665 56.8009 21.9511 56.5909C21.4998 56.1229 20.8483 55.8278 20.1191 55.8278C19.8091 55.8279 19.5016 55.8831 19.211 55.9908C19.211 55.9908 12.4762 49.6145 12.3529 49.5521L12.4084 49.4231C12.7918 48.7059 12.205 47.9242 11.8339 47.9789C12.265 47.4618 12.2852 45.1974 9.89303 44.6737C9.96302 45.1286 9.99854 46.0569 9.99854 46.0569C9.99854 46.0569 8.15236 45.0586 7.2253 45.92C6.41065 46.8845 7.54111 48.6337 7.54111 48.6337C7.54111 48.6337 6.59629 48.6567 6.13057 48.6173C6.81536 50.933 9.11181 50.769 9.60866 50.312C9.57628 50.6805 10.4068 51.2052 11.1103 50.7842L11.4193 50.6345C11.4739 50.7077 18.0331 56.9048 18.0331 56.9048C17.7318 57.3519 17.5884 57.9008 17.6873 58.4857C17.8429 59.3998 18.6045 60.1574 19.5771 60.3541C20.2639 60.492 20.9097 60.3585 21.4277 60.0557L23.164 61.6673C23.3186 61.8073 23.5275 61.8946 23.7608 61.8783C24.1855 61.8498 24.5034 61.5054 24.4712 61.1108C24.4578 60.9326 24.3667 60.7796 24.241 60.6637C24.2133 60.633 22.4726 59.017 22.4726 59.017C23.9085 58.0099 26.5841 57.3006 28.8049 57.3006C29.1951 57.3006 29.3784 56.9705 29.244 56.6466C28.2379 54.2271 30.4011 52.4746 32.6386 53.9014C33.6147 54.5235 34.6062 55.7491 35.3531 57.7936C31.6817 58.6826 27.0722 61.1314 26.1396 63.8048C25.7805 64.8369 26.9665 66.2439 28.4071 66.5272C28.4326 66.5329 28.4593 66.528 28.4812 66.5138C28.5031 66.4996 28.5185 66.4773 28.5238 66.4517C29.2764 62.461 33.568 59.487 35.8011 58.9819C35.9134 59.2826 35.8766 59.1853 35.9889 59.4848C33.5569 60.6351 31.1982 63.0611 30.5246 65.9452C30.2155 67.266 31.6883 68.4567 32.9044 68.7826C32.9655 68.7989 33.0255 68.7563 33.0289 68.6973C33.2601 65.0499 34.8707 61.9525 36.3134 60.5432C36.3529 60.8187 36.3826 61.0955 36.4024 61.373C36.4024 61.373 34.9252 65.4894 34.9252 68.4928C34.9252 69.89 37.0015 70.8653 37.3084 71.002C37.6918 70.8653 39.7671 69.89 39.7671 68.4928C39.7671 65.4893 38.2899 61.373 38.2899 61.373C38.31 61.0954 38.34 60.8187 38.3799 60.5432C39.8216 61.9525 41.4332 65.0488 41.6634 68.696C41.6667 68.7551 41.7278 68.7989 41.7877 68.7825C43.005 68.4568 44.4767 67.2661 44.1688 65.9454C43.4939 63.0612 41.1364 60.6353 38.7043 59.4851C38.8154 59.1854 38.7788 59.2827 38.8911 58.982C41.1254 59.4871 45.4159 62.4609 46.1684 66.4516C46.1738 66.4771 46.1892 66.4994 46.2111 66.5136C46.233 66.5278 46.2597 66.5326 46.2852 66.5271C47.7246 66.244 48.9128 64.8368 48.5516 63.8049C47.6213 61.1315 43.0105 58.6827 39.3391 57.7937C40.0872 55.7492 41.0786 54.5236 42.0545 53.9015C44.291 52.4748 46.454 54.2274 45.4481 56.6469C45.3135 56.9705 45.4958 57.3006 45.8872 57.3006C48.3991 57.3006 51.4936 58.2081 52.7184 59.425C53.5011 60.5992 54.9472 61.3503 56.579 61.1895C58.433 61.0081 59.9448 59.6151 60.1537 57.8933C60.336 56.3844 59.5557 55.0298 58.3119 54.2918L56.143 55.9969ZM40.1668 45.0057C40.9393 44.7195 42.1498 44.9512 42.1086 46.0663C42.0987 46.3188 42.4534 46.3188 42.4789 46.0608C42.7101 44.3913 41.5818 43.9101 40.4014 44.1059C40.2547 43.5319 40.1347 43.0301 39.9979 42.5326C39.8891 42.1304 39.849 41.3748 40.3148 41.3748C40.566 41.3748 40.4649 42.0779 40.4416 42.3806C40.4204 42.6463 40.516 42.8071 40.7317 42.8147C40.8663 42.8201 41.0342 42.6486 41.1341 42.5347C41.8101 41.7705 41.9668 40.5876 41.1753 40.017C40.513 39.538 38.8544 39.8945 38.3985 40.5766C38.3298 40.3196 38.0007 39.8955 37.8427 39.7106C37.6895 39.5304 37.6495 39.4068 37.8617 39.2483C37.9618 39.1717 38.2642 38.8712 38.2642 38.5606C38.2642 38.3769 38.1219 38.0379 37.6695 38.0379C37.3127 38.0379 36.9159 38.2851 36.9159 38.8361C36.9159 38.9586 36.9459 39.0899 37.0247 39.231C36.7991 39.1937 36.1867 39.209 35.8721 39.2867L40.2216 51.2225C41.4666 50.608 42.3791 49.635 42.3791 48.5909C42.3791 47.7008 41.0684 47.996 40.4316 48.6903C40.227 47.5621 40.0447 46.5201 39.8458 45.4814C39.7915 45.1949 39.9367 45.0921 40.1668 45.0057ZM34.0167 36.8979L34.9303 39.4365C34.1479 39.6224 32.8896 40.193 32.8896 40.9484C32.8896 41.9545 34.6692 42.6093 35.6985 42.5305C35.6473 42.7602 35.7063 42.9646 35.8664 43.1515C35.4929 43.1515 34.7883 43.3253 34.557 43.5746C34.0112 43.0662 33.1575 42.8814 32.7517 43.1909C32.3439 43.5025 32.3318 44.0306 32.7574 44.6275C33.0541 45.0408 33.1653 45.4487 32.8319 45.9275C34.0723 45.9275 33.6154 44.3149 34.1012 44.3149C34.0379 44.6275 34.0767 44.9894 34.218 45.3907C34.3114 45.6574 34.3114 45.8466 34.1513 46.1035C33.7512 46.7431 33.1288 48.2125 33.2132 49.5409C32.8064 49.5386 32.5996 49.4391 32.7431 48.8838C32.7963 48.677 32.6686 48.5295 32.4997 48.7843C32.3129 49.0653 32.2228 49.5452 32.2228 49.7506C32.2228 50.9337 33.6321 51.172 34.1701 50.9217C35.7264 52.4276 38.7832 52.0259 39.8069 51.5208L34.4248 36.7533C34.3147 36.4746 33.92 36.6081 34.0167 36.8979ZM33.8299 49.0621C33.7187 48.454 34.5646 47.3674 35.6406 46.3189C35.4116 47.0021 35.5539 48.1797 36.0029 48.5854C35.2225 48.5854 34.2955 48.7318 33.8299 49.0621Z" fill="#E4DBD2"/>
</g>
<defs>
<clipPath id="clip0_8120_18131">
<rect width="67" height="67" fill="white" transform="translate(4 4.00195)"/>
</clipPath>
</defs>
</svg>
