<svg width="159" height="26" viewBox="0 0 159 26" fill="none" xmlns="http://www.w3.org/2000/svg">
<path d="M0.47215 25.1941C0.852947 23.9538 1.2555 22.6428 1.67982 21.261C2.10414 19.8684 2.51213 18.5573 2.90381 17.3279L5.36811 9.33118C5.81419 7.87327 6.21674 6.56768 6.57578 5.41441C6.93482 4.26114 7.29386 3.09698 7.65289 1.92195H16.2535C16.6343 3.15138 16.9987 4.34273 17.3469 5.49601C17.7059 6.64928 18.1031 7.92767 18.5382 9.33118L20.9862 17.3279C21.3888 18.6117 21.7968 19.9337 22.2102 21.2936C22.6345 22.6536 23.0371 23.9538 23.4179 25.1941H16.4656C16.1827 24.0299 15.889 22.8332 15.5844 21.6037C15.2906 20.3743 15.0023 19.2156 14.7194 18.1276L12.1245 7.53599H11.6513L9.00744 17.997C8.72457 19.1394 8.42537 20.3362 8.10985 21.5874C7.79433 22.8386 7.48969 24.0408 7.19594 25.1941H0.47215ZM6.80426 20.8856L7.55497 15.9081H17.1674L17.7712 20.8856H6.80426ZM29.8841 25.6674C28.3065 25.6674 27.0826 25.1887 26.2122 24.2312C25.3526 23.2738 24.9229 21.8376 24.9229 19.9228C24.9229 19.1829 24.9229 18.5465 24.9229 18.0133C24.9229 17.4694 24.9229 16.8982 24.9229 16.2998C24.9229 15.1574 24.9229 14.1727 24.9229 13.3459C24.9229 12.519 24.9229 11.7574 24.9229 11.0611C24.9229 10.3539 24.9229 9.61949 24.9229 8.8579L31.0102 8.67838C31.0102 9.82077 31.0102 10.9523 31.0102 12.0729C31.0102 13.1827 31.0102 14.3251 31.0102 15.5001V17.997C31.0102 18.7477 31.1244 19.3189 31.3529 19.7106C31.5923 20.0914 32.0112 20.2818 32.6095 20.2818C32.9251 20.2818 33.2188 20.2165 33.4908 20.086C33.7628 19.9554 34.0131 19.7813 34.2415 19.5637C34.47 19.3353 34.6822 19.085 34.878 18.813V15.5001C34.878 14.3251 34.878 13.2099 34.878 12.1545C34.878 11.0992 34.878 10.0003 34.878 8.8579H40.9653C40.9653 10.0003 40.9653 11.1318 40.9653 12.2524C40.9653 13.3731 40.9653 14.7222 40.9653 16.2998V18.1929C40.9653 19.5529 40.9653 20.7714 40.9653 21.8485C40.9653 22.9256 40.9653 24.0408 40.9653 25.1941H35.8898L35.6124 22.7461H35.1228C34.742 23.301 34.2959 23.8015 33.7846 24.2475C33.2841 24.6827 32.7075 25.0255 32.0547 25.2757C31.4128 25.5368 30.6892 25.6674 29.8841 25.6674ZM51.4149 25.6674C50.1419 25.6674 49.0431 25.4933 48.1183 25.1451C47.2044 24.7861 46.5026 24.1986 46.013 23.3826C45.5343 22.5557 45.2949 21.4514 45.2949 20.0697C45.2949 19.4821 45.2949 18.8674 45.2949 18.2255C45.2949 17.5836 45.2949 16.8818 45.2949 16.1202C45.2949 15.3478 45.2949 14.4883 45.2949 13.5417C45.2949 12.5951 45.2949 11.5235 45.2949 10.3267C45.2949 9.0211 45.2949 7.84063 45.2949 6.78528C45.2949 5.72992 45.2949 4.65281 45.2949 3.55394L51.3006 2.52579C51.3006 3.39618 51.3006 4.23394 51.3006 5.03905C51.3006 5.83328 51.3006 6.65472 51.3006 7.50335C51.3006 8.35198 51.3006 9.2931 51.3006 10.3267V18.0297C51.3006 18.9109 51.4475 19.5909 51.7413 20.0697C52.035 20.5375 52.5355 20.7714 53.2427 20.7714C53.5582 20.7714 53.9009 20.7116 54.2709 20.5919C54.6517 20.4722 55.0379 20.2873 55.4296 20.037L55.7397 24.884C55.4241 25.0581 55.027 25.205 54.5483 25.3247C54.0805 25.4443 53.5691 25.5314 53.0142 25.5858C52.4702 25.6402 51.9371 25.6674 51.4149 25.6674ZM42.9122 13.3785V8.8579H55.6907V13.3785C54.7115 13.3785 53.7269 13.3785 52.7368 13.3785C51.7576 13.3785 50.811 13.3785 49.8971 13.3785H47.1391H42.9122ZM66.2247 25.6674C64.6579 25.6674 63.3088 25.4334 62.1773 24.9656C61.0458 24.4978 60.1101 23.8613 59.3703 23.0562C58.6414 22.2402 58.1028 21.3154 57.7546 20.2818C57.4065 19.2373 57.2324 18.1439 57.2324 17.0015C57.2324 15.3695 57.5588 13.9062 58.2116 12.6115C58.8644 11.3059 59.8436 10.2723 61.1492 9.51069C62.4656 8.7491 64.114 8.3683 66.0941 8.3683C67.6173 8.3683 68.9392 8.59134 70.0598 9.03742C71.1805 9.47261 72.1107 10.0873 72.8505 10.8816C73.5904 11.6649 74.1398 12.5788 74.4988 13.6233C74.8579 14.6678 75.0374 15.7938 75.0374 17.0015C75.0374 18.6553 74.7001 20.1349 74.0256 21.4405C73.3619 22.7461 72.3718 23.7797 71.0553 24.5413C69.7497 25.292 68.1395 25.6674 66.2247 25.6674ZM66.2083 20.7714C66.7959 20.7714 67.2854 20.5973 67.6771 20.2492C68.0688 19.8901 68.3571 19.4277 68.5421 18.862C68.7379 18.2853 68.8358 17.6652 68.8358 17.0015C68.8358 16.1964 68.7216 15.5164 68.4931 14.9615C68.2646 14.4067 67.9491 13.9878 67.5466 13.7049C67.1549 13.422 66.6979 13.2806 66.1757 13.2806C65.5882 13.2806 65.0877 13.4438 64.6743 13.7702C64.2717 14.0966 63.9616 14.5427 63.744 15.1084C63.5373 15.6633 63.434 16.2943 63.434 17.0015C63.434 17.6652 63.5373 18.2853 63.744 18.862C63.9616 19.4277 64.2772 19.8901 64.6906 20.2492C65.104 20.5973 65.6099 20.7714 66.2083 20.7714ZM77.2294 25.1941C77.3817 24.0082 77.5285 22.8114 77.67 21.6037C77.8223 20.3852 77.9855 19.0687 78.1596 17.6543L79.1551 9.78813C79.3292 8.38462 79.4924 7.05183 79.6447 5.78976C79.797 4.51681 79.9602 3.22754 80.1343 1.92195H86.9234C87.3586 3.07522 87.7665 4.16866 88.1473 5.20225C88.539 6.22496 88.9253 7.24223 89.3061 8.25406L91.5908 14.2924H92.0152L94.1531 8.27038C94.523 7.24767 94.882 6.23584 95.2302 5.23489C95.5892 4.23394 95.9809 3.12962 96.4052 1.92195H103.096C103.27 3.21666 103.439 4.49505 103.602 5.75712C103.765 7.01919 103.94 8.3683 104.125 9.80445L105.153 17.687C105.327 19.1013 105.49 20.4069 105.642 21.6037C105.805 22.7896 105.963 23.9864 106.116 25.1941H99.7181C99.5549 23.8015 99.3917 22.485 99.2285 21.2447C99.0762 19.9935 98.9348 18.8185 98.8042 17.7196L98.2167 13.0195H97.7761L96.2746 18.0623C95.9047 19.3135 95.5348 20.5429 95.1649 21.7506C94.8059 22.9583 94.4631 24.1061 94.1367 25.1941H89.7141C89.4529 24.476 89.1809 23.7199 88.8981 22.9256C88.6152 22.1205 88.3269 21.31 88.0331 20.494C87.7502 19.6671 87.4619 18.8565 87.1682 18.0623L85.373 13.0195H84.9323L84.3611 17.6706C84.2306 18.7804 84.0891 19.9663 83.9368 21.2284C83.7845 22.4904 83.6213 23.8123 83.4472 25.1941H77.2294ZM112.465 25.6184C111.508 25.6184 110.697 25.4171 110.033 25.0146C109.37 24.6011 108.864 24.0408 108.516 23.3336C108.178 22.6264 108.01 21.8322 108.01 20.9509C108.01 20.0044 108.178 19.221 108.516 18.6009C108.853 17.9698 109.283 17.4639 109.805 17.0831C110.338 16.6914 110.898 16.3977 111.486 16.2018C112.073 15.9951 112.617 15.8482 113.118 15.7612L117.475 15.0268C117.497 14.6243 117.399 14.2979 117.181 14.0476C116.964 13.7974 116.632 13.6124 116.186 13.4927C115.74 13.3731 115.19 13.3132 114.538 13.3132C114.168 13.3132 113.76 13.3459 113.314 13.4111C112.878 13.4655 112.416 13.5526 111.926 13.6723C111.448 13.7811 110.964 13.9225 110.474 14.0966C109.984 14.2707 109.495 14.4774 109.005 14.7167L108.744 9.64125C109.157 9.51069 109.631 9.36926 110.164 9.21694C110.697 9.06462 111.285 8.92862 111.926 8.80894C112.568 8.67838 113.254 8.57502 113.983 8.49886C114.712 8.41182 115.473 8.3683 116.268 8.3683C117.671 8.3683 118.873 8.57502 119.874 8.98846C120.875 9.39102 121.637 10.0275 122.159 10.8979C122.692 11.7683 122.959 12.8998 122.959 14.2924C122.959 14.8473 122.959 15.511 122.959 16.2834C122.959 17.0559 122.959 17.725 122.959 18.2908V19.4005C122.959 20.2709 122.959 21.1903 122.959 22.1586C122.959 23.116 122.959 24.1279 122.959 25.1941H117.932L117.524 22.9093H117.116C116.833 23.388 116.474 23.8341 116.039 24.2475C115.604 24.6501 115.087 24.9765 114.489 25.2267C113.901 25.4878 113.227 25.6184 112.465 25.6184ZM115.158 20.9836C115.419 20.9836 115.68 20.9237 115.941 20.804C116.213 20.6735 116.463 20.494 116.692 20.2655C116.931 20.037 117.138 19.7705 117.312 19.4658V17.0668C117.203 17.1647 117.073 17.2572 116.92 17.3442C116.779 17.4204 116.572 17.502 116.3 17.589C116.039 17.6761 115.68 17.7794 115.223 17.8991C114.951 17.9644 114.701 18.0732 114.472 18.2255C114.255 18.3669 114.081 18.5519 113.95 18.7804C113.82 18.998 113.754 19.27 113.754 19.5964C113.754 20.086 113.901 20.4396 114.195 20.6572C114.489 20.8748 114.81 20.9836 115.158 20.9836ZM136.124 25.1941C135.787 24.5631 135.444 23.9375 135.096 23.3173C134.748 22.6863 134.405 22.0661 134.068 21.4568L132.763 19.0741H131.49V15.1247H132.795L134.003 12.9052C134.373 12.2307 134.743 11.5561 135.113 10.8816C135.483 10.207 135.847 9.53245 136.206 8.8579H143.191C142.484 9.85885 141.787 10.8544 141.102 11.8444C140.417 12.8236 139.726 13.8083 139.029 14.7983L136.989 17.7359L136.696 15.0921L139.339 19.1231C140.036 20.1349 140.727 21.1522 141.412 22.1749C142.108 23.1867 142.794 24.1931 143.468 25.1941H136.124ZM125.876 25.1941C125.876 24.0408 125.876 22.9256 125.876 21.8485C125.876 20.7714 125.876 19.5529 125.876 18.1929V9.1027C125.876 7.78623 125.876 6.48064 125.876 5.18593C125.876 3.88034 125.876 2.56931 125.876 1.25284L131.963 0.779563C131.963 2.04163 131.963 3.36354 131.963 4.74529C131.963 6.11616 131.963 7.56863 131.963 9.1027V19.4495C131.963 20.4722 131.963 21.4405 131.963 22.3544C131.963 23.2575 131.963 24.204 131.963 25.1941H125.876ZM150.985 25.6674C150.082 25.6674 149.244 25.6184 148.472 25.5205C147.71 25.4334 147.02 25.3083 146.399 25.1451C145.79 24.9819 145.257 24.797 144.8 24.5903L145.159 19.6453C145.627 19.9609 146.16 20.2383 146.758 20.4776C147.368 20.7061 147.982 20.8856 148.603 21.0162C149.234 21.1359 149.827 21.1957 150.381 21.1957C150.74 21.1957 151.051 21.1631 151.312 21.0978C151.584 21.0325 151.79 20.9183 151.932 20.7551C152.084 20.5919 152.16 20.3634 152.16 20.0697C152.16 19.8085 152.068 19.6018 151.883 19.4495C151.698 19.2863 151.388 19.1394 150.953 19.0089C150.528 18.8674 149.946 18.7042 149.206 18.5193C148.162 18.2581 147.313 17.9209 146.66 17.5074C146.008 17.094 145.524 16.5826 145.208 15.9734C144.903 15.3532 144.751 14.6025 144.751 13.7212C144.751 12.0566 145.306 10.7564 146.416 9.82077C147.525 8.87422 149.076 8.40094 151.067 8.40094C151.959 8.40094 152.802 8.45534 153.596 8.56414C154.391 8.67294 155.109 8.81438 155.751 8.98846C156.403 9.16254 156.947 9.33662 157.383 9.51069L157.007 14.5209C156.507 14.1945 155.963 13.9279 155.375 13.7212C154.788 13.5036 154.227 13.3459 153.694 13.2479C153.172 13.1391 152.753 13.0847 152.438 13.0847C152.155 13.0847 151.905 13.1228 151.687 13.199C151.469 13.2643 151.301 13.3731 151.181 13.5254C151.061 13.6777 151.002 13.8735 151.002 14.1129C151.002 14.3414 151.061 14.5481 151.181 14.7331C151.301 14.9071 151.524 15.0703 151.85 15.2227C152.177 15.375 152.65 15.5327 153.27 15.6959C154.499 16.0223 155.484 16.3759 156.224 16.7567C156.975 17.1375 157.513 17.6054 157.84 18.1602C158.177 18.7151 158.345 19.4223 158.345 20.2818C158.345 21.3589 158.095 22.3 157.595 23.1051C157.094 23.9103 156.3 24.5413 155.212 24.9983C154.124 25.4443 152.715 25.6674 150.985 25.6674Z" fill="#524656"/>
</svg>
