<svg width="33" height="33" viewBox="0 0 33 33" fill="none" xmlns="http://www.w3.org/2000/svg">
<path d="M12.6836 13.5891H20.6836" stroke="#919191" stroke-width="2" stroke-linecap="round" stroke-linejoin="round"/>
<path d="M12.6836 17.5891H20.6836" stroke="#919191" stroke-width="2" stroke-linecap="round" stroke-linejoin="round"/>
<path d="M19.3923 25.0746L17.5411 28.1599C17.4522 28.308 17.3266 28.4305 17.1763 28.5156C17.026 28.6007 16.8563 28.6454 16.6836 28.6454C16.5109 28.6454 16.3412 28.6007 16.1909 28.5156C16.0406 28.4305 15.9149 28.308 15.8261 28.1599L13.9749 25.0746C13.8861 24.9265 13.7604 24.8039 13.6101 24.7189C13.4598 24.6338 13.2901 24.5891 13.1174 24.5891H5.68359C5.41838 24.5891 5.16402 24.4837 4.97649 24.2962C4.78895 24.1086 4.68359 23.8543 4.68359 23.5891V7.58911C4.68359 7.32389 4.78895 7.06954 4.97649 6.882C5.16402 6.69447 5.41838 6.58911 5.68359 6.58911H27.6836C27.9488 6.58911 28.2032 6.69447 28.3907 6.882C28.5782 7.06954 28.6836 7.32389 28.6836 7.58911V23.5891C28.6836 23.8543 28.5782 24.1087 28.3907 24.2962C28.2032 24.4838 27.9488 24.5891 27.6836 24.5891L20.2498 24.5891C20.0771 24.5891 19.9074 24.6338 19.7571 24.7189C19.6068 24.8039 19.4811 24.9265 19.3923 25.0746V25.0746Z" stroke="#919191" stroke-width="2" stroke-linecap="round" stroke-linejoin="round"/>
</svg>
