<?xml version="1.0" encoding="utf-8"?><svg viewBox="0 0 67 51" xmlns="http://www.w3.org/2000/svg" xmlns:xlink="http://www.w3.org/1999/xlink"><style>:root>svg{display:none}:root>svg:target{display:block}</style><svg fill="none" viewBox="0 0 18 18" id="arrow-btn" xmlns="http://www.w3.org/2000/svg"><path d="M17.4 9A8.4 8.4 0 1 1 .6 9a8.4 8.4 0 0 1 16.8 0Z" stroke="currentColor" stroke-width="1.2" stroke-miterlimit="10" stroke-linecap="round" stroke-linejoin="round"/><path d="M8.1 11.7 10.8 9 8.1 6.3" stroke="currentColor" stroke-width="1.2" stroke-linecap="round" stroke-linejoin="round"/></svg><svg fill="none" viewBox="0 0 20 20" id="arrow-left" xmlns="http://www.w3.org/2000/svg"><path d="m13 2-8 8 8 8" stroke="currentColor" stroke-width="1.2" stroke-linecap="round" stroke-linejoin="round"/></svg><svg fill="none" viewBox="0 0 20 20" id="arrow-right" xmlns="http://www.w3.org/2000/svg"><path d="m7 18 8-8-8-8" stroke="currentColor" stroke-width="1.2" stroke-linecap="round" stroke-linejoin="round"/></svg><svg fill="none" viewBox="0 0 44 44" id="bookmark" xmlns="http://www.w3.org/2000/svg"><path d="M26 2c4 0 6 2.059 6 6.177v14.372c0 4.057-2.82 5.627-6.28 3.507l-2.64-1.631c-.6-.367-1.56-.367-2.16 0l-2.64 1.63c-3.46 2.12-6.28.551-6.28-3.506V8.177C12 4.059 14 2 18 2h8Z" stroke="#fff" stroke-width="1.5" stroke-linecap="round" stroke-linejoin="round"/><path d="M11.64 8.06C4.82 9.197 2 13.387 2 21.847v6.046C2 37.97 6 42 16 42h12c10 0 14-4.03 14-14.107v-6.046c0-8.6-2.92-12.81-10-13.847" stroke="#fff" stroke-width="1.5" stroke-linecap="round" stroke-linejoin="round"/></svg><svg fill="none" viewBox="0 0 18 18" id="cart" xmlns="http://www.w3.org/2000/svg"><path d="M.75.75h1.469c.911 0 1.629.791 1.553 1.701l-.7 8.472A2.37 2.37 0 0 0 5.425 13.5h8.99c1.215 0 2.279-1.004 2.372-2.22l.455-6.38c.102-1.411-.962-2.56-2.371-2.56H3.973M12 17.25a.75.75 0 1 0 0-1.5.75.75 0 0 0 0 1.5ZM6 17.25a.75.75 0 1 0 0-1.5.75.75 0 0 0 0 1.5ZM6.75 5.25h9.75" stroke="#fff" stroke-width="1.4" stroke-miterlimit="10" stroke-linecap="round" stroke-linejoin="round"/></svg><svg fill="none" viewBox="0 0 19 19" id="close" xmlns="http://www.w3.org/2000/svg"><path d="m1 1 17 17M18 1 1 18" stroke="#9C9C9C" stroke-width="2.467"/></svg><svg fill="none" viewBox="0 0 44 44" id="crown" xmlns="http://www.w3.org/2000/svg"><path d="M2 28.734V9.104c0-2.726 1.54-3.382 3.42-1.456l5.18 5.308c.78.799 2.06.799 2.82 0l7.16-7.357c.78-.799 2.06-.799 2.82 0l7.18 7.357c.78.799 2.06.799 2.82 0l5.18-5.308C40.46 5.722 42 6.378 42 9.103v19.651C42 34.902 38 39 32 39H12c-5.52-.02-10-4.61-10-10.266Z" stroke="#fff" stroke-width="1.5" stroke-linecap="round" stroke-linejoin="round"/></svg><svg fill="none" viewBox="0 0 67 42" id="delivery" xmlns="http://www.w3.org/2000/svg"><path d="M9.746 22.356v-9.97m8.614 23.983H11.46a1.713 1.713 0 0 1-1.715-1.704v-4.583m8.614 6.287a4.634 4.634 0 0 1 4.63-4.631 4.634 4.634 0 0 1 4.631 4.63m-9.261 0A4.634 4.634 0 0 0 22.99 41c2.556.012 4.631-2.064 4.631-4.631m20.515 0H27.621M9.746 4.85V2.704c0-.948.756-1.704 1.703-1.704h31.673c.947 0 1.703.768 1.703 1.704V18.84a6.943 6.943 0 0 0 6.947 6.947H66m0 0v5.735a4.862 4.862 0 0 1-4.859 4.859h-3.755M66 25.787C66 15.745 54.927 7.551 44.825 7.155M60.05 29.098v.12c0 1.032.828 1.86 1.86 1.86h.792M24.166 8.463H1m28.613 9.07H15.097m11.793 8.47H5.115M57.41 36.369a4.634 4.634 0 0 0-4.63-4.631 4.634 4.634 0 0 0-4.632 4.63A4.634 4.634 0 0 0 52.78 41a4.626 4.626 0 0 0 4.631-4.631Z" stroke="#000" stroke-width="1.8" stroke-miterlimit="10" stroke-linecap="round" stroke-linejoin="round"/></svg><svg fill="none" viewBox="0 0 48 49" id="development" xmlns="http://www.w3.org/2000/svg"><path d="M23.773 20.49c-1.66 0-3.274.866-4.024 3.05-1 2.915.704 4.963 2.819 5.669 2.114.728 4.706.16 5.706-2.755 1-2.913-.705-4.962-2.819-5.668a5.34 5.34 0 0 0-1.682-.295Zm.409 10.972a6.778 6.778 0 0 1-2.25-.387c-3.047-1.047-5.412-4.188-4.047-8.172 1.364-3.983 5.16-5.007 8.206-3.983 3.047 1.047 5.411 4.188 4.024 8.172-1.045 3.05-3.478 4.37-5.933 4.37Zm-5.98 6.76c.114 0 .41.137.82.274.636.25 1.704.683 2.227.455.068-.022.228-.114.364-.5l.477-1.389c.455-1.297 1.705-1.366 2.547-1.411.204 0 .409-.023.59-.046 1.547-.182 2.138 1.047 2.479 1.799.272.591.477.955.84 1.092.228.068.478.068.683-.045.068-.069.364-.205.75-.365.591-.25 1.705-.728 1.91-1.274.022-.069.09-.25-.091-.615l-.66-1.32c-.59-1.23.25-2.163.819-2.777.136-.16.273-.296.41-.456.522-.66 1.454-.978 2.227-.75.136.022.273.09.432.136.386.16 1.319.523 1.796.296.09-.046.25-.16.364-.501 0-.114.113-.41.273-.82.25-.637.682-1.707.454-2.23-.022-.069-.113-.228-.5-.364l-.136-.069c-.069-.045-.273-.09-.432-.136-.705-.205-2.16-.615-2.183-2.277 0-.204-.023-.387-.023-.591-.068-.82-.159-2.072.978-2.687a2.59 2.59 0 0 1 .432-.204c.386-.182 1.296-.57 1.478-1.07.023-.069.09-.25-.091-.615l-.478-.956c-.727-1.525-.773-1.525-1.114-1.639-.386-.136-.75.046-1.318.342-.728.387-1.933 1.024-3.07-.114a8.224 8.224 0 0 0-.477-.433c-.613-.523-1.546-1.343-1.16-2.572.024-.136.07-.25.137-.432.16-.387.523-1.32.296-1.822-.046-.09-.16-.25-.5-.364-.114-.045-.432-.114-.819-.273-.636-.25-1.705-.683-2.228-.455-.045.023-.227.114-.363.5-.091.206-.16.41-.205.57-.205.705-.614 2.162-2.273 2.185-.182 0-.364.023-.546.046-.796.068-2.091.182-2.705-1.002a3.422 3.422 0 0 1-.205-.41c-.182-.387-.568-1.32-1.069-1.502-.113-.046-.272-.068-.613.09l-.955.456c-1.523.729-1.546.774-1.66 1.116a.798.798 0 0 0 .046.682l.66 1.343c.59 1.23-.251 2.163-.82 2.778-.136.159-.272.296-.409.455-.522.66-1.455.979-2.227.774-.137-.023-.273-.091-.433-.16-.386-.159-1.318-.523-1.818-.296-.091.046-.25.16-.364.501 0 .114-.114.41-.273.82-.25.637-.682 1.707-.454 2.23.022.069.113.228.5.365l1.386.478c1.296.455 1.365 1.707 1.387 2.527.023.204.023.41.046.614.09.842-.341 1.73-1.023 2.117a4.16 4.16 0 0 1-.455.228c-.386.159-1.296.546-1.478 1.047-.022.068-.09.25.091.637.068.068.205.387.387.774.273.637.727 1.707 1.273 1.912.068.023.25.091.614-.09l.477-.229c1.66-.819 2.092-.887 3.41.228.182.16.41.341.705.57.66.523.978 1.456.75 2.207-.023.137-.09.273-.159.433-.16.387-.523 1.32-.296 1.82.114.114.205.251.569.365ZM20.863 41c-.931 0-1.886-.387-2.591-.66-.227-.091-.432-.182-.546-.205-1.159-.387-1.614-1.002-1.818-1.457-.569-1.252-.023-2.663.25-3.346 0-.068.068-.205.09-.273 0 .045-.045-.091-.09-.114-.296-.25-.546-.455-.75-.615-.205-.159-.41-.364-.5-.386.022.045-.364.25-.75.432l-.478.25c-.932.456-1.705.365-2.16.183-1.319-.501-1.955-1.98-2.387-2.982a3.855 3.855 0 0 0-.25-.524c-.546-1.093-.432-1.867-.273-2.345.477-1.274 1.864-1.866 2.546-2.162l.182-.091.091-.205c-.023-.25-.045-.5-.045-.751-.023-.273-.046-.706-.114-.82l-1.364-.455c-1-.341-1.455-.956-1.66-1.411-.59-1.275.023-2.777.41-3.779.09-.227.181-.432.204-.546.387-1.161.978-1.616 1.455-1.821 1.25-.57 2.66-.023 3.365.25.09 0 .204.068.273.091 0-.023.09-.068.113-.09.16-.206.341-.388.5-.57.182-.205.455-.5.5-.637l-.659-1.275a2.807 2.807 0 0 1-.136-2.185c.41-1.161 1.068-1.48 2.66-2.254l.955-.455c.932-.455 1.682-.341 2.16-.182 1.295.478 1.909 1.866 2.204 2.55l.091.181c.137.114.591.069.864.046.228-.023.478-.046.705-.046.114 0 .182 0 .387-.75.068-.274.159-.547.295-.82a2.467 2.467 0 0 1 1.341-1.525c1.274-.592 2.774.022 3.774.41.228.09.432.181.546.204 1.16.387 1.614 1.002 1.819 1.457.568 1.252.022 2.663-.25 3.346 0 .069-.069.205-.091.273.045.069.363.342.568.524.182.16.386.319.568.5.182.069.546-.113.75-.227.66-.364 1.66-.888 2.888-.478 1.16.387 1.477 1.07 2.25 2.663l.455.956c.455.934.341 1.685.182 2.163-.477 1.275-1.864 1.89-2.523 2.185l-.205.091c-.114.137-.091.57-.046.842.023.25.046.478.046.729 0 .114 0 .182.75.387.25.068.5.136.75.25.955.342 1.387.933 1.592 1.389.59 1.274-.023 2.777-.41 3.778-.09.228-.181.433-.204.547-.387 1.16-1 1.616-1.455 1.82-1.25.57-2.66.023-3.342-.25-.068 0-.205-.068-.273-.09 0 .022-.09.068-.113.09-.16.205-.319.387-.5.57-.182.204-.478.523-.5.637l.659 1.274c.454.934.34 1.708.181 2.186-.5 1.32-2 1.98-2.978 2.39-.227.09-.409.16-.523.227-.84.433-1.614.479-2.341.228-1.182-.41-1.637-1.388-1.978-2.117-.114-.228-.296-.614-.387-.683-.318.046-.568.046-.818.069-.273.022-.705.022-.819.09l-.454 1.366c-.341 1.002-.955 1.457-1.41 1.662-.409.228-.818.296-1.227.296Z" fill="#000"/><path d="M3.54 36c-.363 0-.703-.185-.862-.531A24.734 24.734 0 0 1 0 24.285C0 10.883 10.71 0 23.85 0c6.377 0 12.367 2.519 16.86 7.117a1.003 1.003 0 0 1 0 1.41.96.96 0 0 1-1.384 0C35.196 4.32 29.705 2.01 23.85 2.01c-12.073 0-21.876 10.005-21.876 22.275 0 3.628.817 7.07 2.451 10.26.25.484.068 1.085-.408 1.34A.908.908 0 0 1 3.54 36ZM23.935 48a24.04 24.04 0 0 1-9.333-1.883c-.504-.206-.732-.803-.527-1.308.206-.505.801-.735 1.304-.528a21.958 21.958 0 0 0 8.579 1.745c12.17 0 22.052-9.942 22.052-22.156 0-.918-.046-1.837-.16-2.755a.985.985 0 0 1 .869-1.102c.549-.092 1.03.321 1.098.872.114.987.183 1.998.183 2.985C47.977 37.163 37.18 48 23.935 48Z" fill="#000"/><path d="M40.089 9H36.93c-.519 0-.93-.483-.93-1.093s.411-1.093.93-1.093h2.207v-2.72c0-.611.41-1.094.93-1.094.519 0 .93.483.93 1.093v3.814c.043.61-.39 1.093-.908 1.093ZM16.26 49a.977.977 0 0 1-.903-.578l-1.29-2.977a.954.954 0 0 1 0-.707.864.864 0 0 1 .543-.493l3.053-1.178a.994.994 0 0 1 1.266.514c.203.472-.045 1.007-.543 1.2l-2.148.835.905 2.12c.203.472-.046 1.007-.543 1.2a.865.865 0 0 1-.34.064Z" fill="#000"/></svg><svg fill="none" viewBox="0 0 44 44" id="grid" xmlns="http://www.w3.org/2000/svg"><path d="M16 42h12c10 0 14-4 14-14V16C42 6 38 2 28 2H16C6 2 2 6 2 16v12c0 10 4 14 14 14ZM27 2v40M27 18h14" stroke="#fff" stroke-width="1.5" stroke-linecap="round" stroke-linejoin="round"/></svg><svg fill="none" viewBox="0 0 18 18" id="isolation" xmlns="http://www.w3.org/2000/svg"><path d="M3.042 4.498A7.47 7.47 0 0 0 9 16.468a7.47 7.47 0 0 0 7.467-7.468A7.47 7.47 0 0 0 9 1.533" stroke="#111" stroke-width="1.2" stroke-linecap="round" stroke-linejoin="round"/><path d="M3.933 9A5.063 5.063 0 0 0 9 14.067 5.063 5.063 0 0 0 14.067 9 5.063 5.063 0 0 0 9 3.933" stroke="#111" stroke-width="1.2" stroke-linecap="round" stroke-linejoin="round"/><path d="M9 11.933a2.932 2.932 0 1 0 0-5.866" stroke="#111" stroke-width="1.2" stroke-linecap="round" stroke-linejoin="round"/></svg><svg fill="none" viewBox="0 0 25 25" id="mail" xmlns="http://www.w3.org/2000/svg"><path d="m4.167 7.292 6.458 4.844a3.125 3.125 0 0 0 3.75 0l6.458-4.844" stroke="#5E86B6" stroke-width="2.083" stroke-linecap="round" stroke-linejoin="round"/><path d="M19.792 5.208H5.208c-1.15 0-2.083.933-2.083 2.083v10.417c0 1.15.933 2.083 2.083 2.083h14.584c1.15 0 2.083-.932 2.083-2.083V7.291c0-1.15-.933-2.083-2.083-2.083Z" stroke="#5E86B6" stroke-width="2.083" stroke-linecap="round"/></svg><svg fill="none" viewBox="0 0 18 30" id="ok" xmlns="http://www.w3.org/2000/svg"><path d="M8.918 15.483c4.388 0 7.943-3.469 7.942-7.744C16.858 3.463 13.3-.001 8.912 0 4.525.001.968 3.47.97 7.745c.005 4.273 3.562 7.736 7.948 7.738Zm0-10.944c1.817 0 3.291 1.436 3.291 3.207s-1.474 3.206-3.291 3.206c-1.818 0-3.292-1.436-3.292-3.207.003-1.77 1.475-3.205 3.292-3.206ZM12.13 21.8a15.043 15.043 0 0 0 4.615-1.862c1.082-.68 1.393-2.084.695-3.138-.686-1.038-2.1-1.351-3.178-.704a10.315 10.315 0 0 1-10.697 0c-1.086-.664-2.52-.346-3.204.71a2.233 2.233 0 0 0 .726 3.13c1.419.87 2.979 1.5 4.613 1.863l-4.443 4.329a2.23 2.23 0 0 0 .092 3.21 2.375 2.375 0 0 0 3.203 0l4.363-4.255 4.366 4.255a2.37 2.37 0 0 0 3.289 0 2.226 2.226 0 0 0 0-3.205L12.13 21.8Z" fill="currentColor"/></svg><svg fill="none" viewBox="0 0 30 40" id="play" xmlns="http://www.w3.org/2000/svg"><path d="M26.394 20 2 36.263V3.737L26.394 20Z" stroke="currentColor" stroke-width="4"/></svg><svg fill="none" viewBox="0 0 51 51" id="puzzle" xmlns="http://www.w3.org/2000/svg"><mask id="aoa" fill="#fff"><path d="M49.168 26.297v18.592a4.284 4.284 0 0 1-4.28 4.28H26.298v-6.307s.01 0 .01.009c.065.047.13.094.196.131.029.02.057.038.085.047a.856.856 0 0 0 .122.075c.037.02.075.038.113.066.037.019.065.038.103.056.037.02.084.047.122.066.028.019.056.028.094.047.047.019.093.047.14.066.029.01.057.028.085.037.047.019.094.038.15.066.028.01.047.019.075.028.056.019.103.038.15.056.019.01.047.02.075.029.057.018.104.037.16.056.019.01.047.019.075.019.056.018.103.028.16.047.028.009.046.009.075.018a.98.98 0 0 0 .16.038c.027.01.046.01.074.019a.97.97 0 0 1 .16.037c.028.01.056.01.084.019.047.01.104.019.15.028.029 0 .057.01.085.01.047.009.103.009.15.018.028 0 .066.01.094.01.047.009.094.009.14.009.038 0 .076.01.104.01.047 0 .094.009.131.009h.526c.047 0 .103 0 .15-.01.047 0 .094-.009.14-.009.057-.01.123-.01.18-.019.037 0 .065-.01.102-.01.075-.008.15-.018.216-.027.019 0 .028-.01.047-.01a6.198 6.198 0 0 0 3.397-1.773 6.25 6.25 0 0 0 1.718-3.38c0-.018.01-.027.01-.046l.028-.225c.009-.038.009-.066.009-.103.01-.066.01-.122.019-.188 0-.047.009-.094.009-.14 0-.057.01-.104.01-.16v-.31c0-.047 0-.103-.01-.15 0-.047 0-.094-.01-.141 0-.056-.009-.122-.018-.178 0-.038-.01-.076-.01-.104l-.028-.225c0-.019-.009-.038-.009-.056a6.25 6.25 0 0 0-1.718-3.379 6.167 6.167 0 0 0-3.397-1.774c-.019 0-.028-.009-.047-.009l-.225-.028c-.038 0-.066-.01-.103-.01-.057-.009-.122-.009-.179-.018-.046 0-.093-.01-.14-.01-.057 0-.104-.01-.16-.01h-.394c-.047 0-.085 0-.131.01-.038 0-.085 0-.122.01-.038 0-.085.01-.122.01-.038 0-.085.008-.132.008-.037 0-.075.01-.113.01-.046.01-.093.01-.14.019-.029.009-.066.009-.094.018-.047.01-.094.02-.14.028-.03.01-.057.01-.085.02a.99.99 0 0 0-.16.037c-.028.01-.047.01-.075.019-.056.009-.113.028-.169.037-.019.01-.037.01-.056.019a3.979 3.979 0 0 1-.179.056c-.018.01-.028.01-.046.019a1.487 1.487 0 0 0-.188.066c-.01 0-.019.01-.028.01-.066.027-.132.046-.197.074-.01 0-.01 0-.01.01a6.066 6.066 0 0 0-1.257.685v-6.354h6.316c.638 0 1.22-.347 1.51-.92.301-.572.254-1.257-.121-1.783a4.495 4.495 0 0 1-.826-2.618c0-1.23.478-2.384 1.36-3.248a4.52 4.52 0 0 1 3.267-1.314c2.421.038 4.43 2.037 4.486 4.449a4.519 4.519 0 0 1-.836 2.731 1.723 1.723 0 0 0-.122 1.774 1.7 1.7 0 0 0 1.511.92h6.335v.009ZM25.5 41.341a1.7 1.7 0 0 0-.92 1.511v6.326H5.988a4.284 4.284 0 0 1-4.28-4.28V26.297h6.307s0 .01-.01.01c-.046.065-.093.13-.13.196l-.057.085c-.028.037-.047.075-.075.122-.02.037-.047.075-.066.113-.019.028-.038.065-.056.093-.028.047-.047.094-.075.132-.02.028-.029.056-.038.075-.019.047-.047.103-.066.15-.009.019-.018.047-.037.066-.019.056-.047.103-.066.16-.01.018-.019.046-.028.065a.81.81 0 0 1-.066.16c-.01.018-.019.037-.028.065l-.056.17c-.01.018-.01.037-.019.065-.019.056-.038.112-.047.169-.01.018-.01.047-.019.065-.018.057-.028.113-.037.16-.01.028-.01.047-.019.075a.982.982 0 0 1-.038.16c-.009.028-.009.056-.018.084-.01.047-.02.103-.028.15-.01.028-.01.056-.02.094-.009.047-.009.094-.018.15 0 .038-.01.066-.01.104 0 .046-.009.093-.009.14 0 .038-.01.075-.01.113 0 .047-.009.084-.009.131 0 .038 0 .085-.009.122v.404c0 .056 0 .103.01.16 0 .046.009.093.009.14.01.056.01.122.019.178 0 .038.009.066.009.104l.028.225c0 .01.01.028.01.037a6.2 6.2 0 0 0 1.773 3.398 6.275 6.275 0 0 0 2.816 1.595h.01c.084.02.168.038.253.057.028.009.047.009.075.018.065.01.131.029.197.038.037.01.084.01.122.019.056.01.103.019.16.019.056.009.112.009.168.018.047 0 .085.01.132.01.065 0 .122.009.187.009.038 0 .085 0 .122.01H13.317c.057 0 .104 0 .16-.01.037 0 .084-.01.122-.01.066-.009.131-.009.188-.018.028 0 .047-.01.075-.01.084-.009.16-.018.244-.037h.01a6.27 6.27 0 0 0 3.396-1.718 6.167 6.167 0 0 0 1.774-3.397c0-.019 0-.028.01-.047.01-.075.018-.15.028-.216 0-.037.01-.065.01-.103.009-.056.009-.122.018-.178 0-.047.01-.094.01-.141 0-.047.009-.103.009-.15v-.526c0-.047 0-.084-.01-.131 0-.038-.009-.075-.009-.103 0-.047-.01-.094-.01-.141 0-.028-.009-.066-.009-.094-.01-.047-.01-.103-.018-.15 0-.028-.01-.056-.01-.085l-.028-.16c0-.027-.01-.046-.019-.074-.01-.056-.028-.113-.037-.17-.01-.018-.01-.037-.02-.055a1.235 1.235 0 0 0-.046-.179c0-.019-.01-.028-.01-.047-.018-.065-.037-.122-.056-.187 0-.01-.01-.029-.01-.038-.018-.066-.046-.131-.065-.197 0-.01-.01-.019-.01-.028-.027-.066-.046-.132-.074-.207v-.01a6.068 6.068 0 0 0-.685-1.257h6.306v6.317a1.7 1.7 0 0 0 .92 1.51c.573.291 1.248.244 1.774-.122.103-.065.197-.13.3-.197.019-.009.038-.028.066-.037a.293.293 0 0 1 .094-.047c.028-.019.056-.028.084-.047.028-.01.047-.028.075-.038.028-.018.057-.028.094-.047.019-.009.047-.018.066-.028.028-.009.066-.028.094-.037.018-.01.047-.019.065-.028.029-.01.066-.029.094-.038a.645.645 0 0 1 .075-.028c.028-.01.066-.019.094-.028.028-.01.047-.019.075-.028.028-.01.066-.02.094-.029.028-.009.047-.018.075-.018a.278.278 0 0 1 .094-.019c.028-.01.056-.01.085-.019.028-.01.056-.01.084-.019.028-.009.056-.009.084-.018.029-.01.057-.01.085-.02.028-.008.066-.008.094-.018.028 0 .056-.01.084-.01.028 0 .066-.009.094-.009.028 0 .047-.009.075-.009.038 0 .066-.01.103-.01h.46c.038 0 .085 0 .122.01a.26.26 0 0 1 .085.01c.056 0 .103.009.16.018h.027c2.056.263 3.707 1.934 3.96 3.989v.037c.01.057.01.113.02.16 0 .028 0 .066.009.094 0 .037 0 .084.01.122v.225c0 .047 0 .084-.01.122 0 .028 0 .056-.01.084 0 .057-.009.113-.018.17v.028c-.244 2.055-1.905 3.725-3.951 3.988h-.038c-.056.01-.103.01-.16.019-.027 0-.056.01-.093.01-.038 0-.085 0-.122.009h-.441c-.038 0-.085-.01-.122-.01-.019 0-.038 0-.057-.009a.548.548 0 0 1-.122-.019c-.018 0-.037 0-.046-.01-.047-.009-.085-.009-.122-.018-.02 0-.038-.01-.057-.01-.037-.009-.084-.018-.122-.028-.019 0-.037-.009-.056-.009l-.113-.028c-.018-.01-.037-.01-.056-.019l-.113-.028c-.018-.01-.047-.01-.065-.019a.457.457 0 0 1-.104-.037.174.174 0 0 0-.065-.02c-.028-.008-.066-.018-.094-.037a.645.645 0 0 0-.075-.028c-.028-.01-.066-.028-.094-.037-.028-.01-.047-.02-.075-.028-.028-.01-.056-.029-.085-.038a.283.283 0 0 1-.075-.038c-.028-.018-.056-.028-.084-.047-.019-.009-.047-.028-.066-.037a.293.293 0 0 0-.094-.047c-.018-.01-.037-.028-.065-.038a.624.624 0 0 1-.104-.065l-.056-.028c-.047-.029-.094-.066-.14-.094 0 0-.01 0-.01-.01-.488-.356-1.173-.403-1.746-.103ZM1.71 5.997a4.29 4.29 0 0 1 4.279-4.28h18.591v6.317a6.266 6.266 0 0 0-3.603-1.136c-1.69 0-3.276.666-4.468 1.868a6.181 6.181 0 0 0-1.802 4.495 6.285 6.285 0 0 0 1.821 4.317 6.22 6.22 0 0 0 4.299 1.858 6.256 6.256 0 0 0 3.744-1.135v6.307h-6.316a1.7 1.7 0 0 0-1.511.92 1.723 1.723 0 0 0 .122 1.773c.038.047.066.103.103.15.028.047.066.094.094.15.019.029.028.057.047.085.01.028.028.047.037.075.02.038.038.066.057.103l.028.057.056.112c.01.019.02.028.02.047.018.038.037.075.046.113.01.018.01.028.019.047.018.037.028.084.047.122.01.018.01.028.018.047.02.037.029.084.038.122.01.018.01.028.019.047.01.037.028.084.037.122 0 .018.01.028.02.047.009.037.018.075.027.122 0 .018.01.037.01.056l.028.112c0 .02.01.038.01.057.008.037.008.075.018.112 0 .02.01.047.01.066.009.038.009.066.018.103 0 .028.01.047.01.075 0 .038.009.066.009.104 0 .028 0 .056.01.084 0 .028.009.066.009.094v.385c0 .037 0 .084-.01.122 0 .028 0 .056-.01.093 0 .057-.009.104-.018.16v.038c-.263 2.046-1.924 3.707-3.98 3.95-.018 0-.037 0-.056.01-.046.01-.093.01-.15.01-.037 0-.065 0-.103.009h-.338c-.037 0-.075 0-.122-.01-.028 0-.066 0-.094-.009a.827.827 0 0 1-.16-.019h-.037c-2.055-.244-3.726-1.905-3.988-3.96v-.028c-.01-.057-.01-.104-.02-.16 0-.028 0-.056-.009-.084 0-.038-.009-.085-.009-.122v-.385c0-.028 0-.056.01-.094 0-.028 0-.056.009-.084 0-.029.01-.066.01-.094 0-.028.009-.057.009-.075 0-.038.009-.066.009-.104 0-.028.01-.046.01-.075.009-.037.009-.075.018-.103 0-.019.01-.047.01-.066a.47.47 0 0 0 .018-.112c0-.019.01-.038.02-.056l.027-.113c.01-.019.01-.038.019-.056a.53.53 0 0 1 .038-.113c.009-.019.009-.038.018-.047.01-.037.029-.075.038-.113.01-.018.01-.028.019-.047.018-.037.028-.075.047-.112a.157.157 0 0 0 .018-.047c.02-.038.029-.075.047-.113.01-.018.02-.037.028-.056.02-.038.029-.066.047-.103l.029-.057c.018-.028.028-.065.046-.093.01-.029.029-.047.038-.075.019-.029.028-.057.047-.085.019-.028.037-.066.056-.094a.195.195 0 0 1 .038-.056c.037-.047.065-.103.103-.15.019-.028.028-.047.047-.075a1.71 1.71 0 0 0-1.436-2.628H1.708V5.997Zm42.288 14.847a6.22 6.22 0 0 0-1.858-4.298 6.203 6.203 0 0 0-4.317-1.82 6.196 6.196 0 0 0-4.496 1.801 6.238 6.238 0 0 0-1.867 4.467c0 1.296.394 2.544 1.145 3.604h-6.316v-6.325a1.7 1.7 0 0 0-.92-1.511 1.723 1.723 0 0 0-1.774.122 4.491 4.491 0 0 1-2.731.826c-2.421-.057-4.411-2.065-4.448-4.486a4.52 4.52 0 0 1 1.313-3.266 4.563 4.563 0 0 1 5.866-.535c.526.375 1.21.422 1.783.122a1.7 1.7 0 0 0 .92-1.511V0H5.987A5.992 5.992 0 0 0 0 5.988V44.889a5.992 5.992 0 0 0 5.988 5.987H44.889a5.992 5.992 0 0 0 5.987-5.987v-20.3h-8.024a6.2 6.2 0 0 0 1.145-3.745Z"/></mask><path d="M49.168 26.297v18.592a4.284 4.284 0 0 1-4.28 4.28H26.298v-6.307s.01 0 .01.009c.065.047.13.094.196.131.029.02.057.038.085.047a.856.856 0 0 0 .122.075c.037.02.075.038.113.066.037.019.065.038.103.056.037.02.084.047.122.066.028.019.056.028.094.047.047.019.093.047.14.066.029.01.057.028.085.037.047.019.094.038.15.066.028.01.047.019.075.028.056.019.103.038.15.056.019.01.047.02.075.029.057.018.104.037.16.056.019.01.047.019.075.019.056.018.103.028.16.047.028.009.046.009.075.018a.98.98 0 0 0 .16.038c.027.01.046.01.074.019a.97.97 0 0 1 .16.037c.028.01.056.01.084.019.047.01.104.019.15.028.029 0 .057.01.085.01.047.009.103.009.15.018.028 0 .066.01.094.01.047.009.094.009.14.009.038 0 .076.01.104.01.047 0 .094.009.131.009h.526c.047 0 .103 0 .15-.01.047 0 .094-.009.14-.009.057-.01.123-.01.18-.019.037 0 .065-.01.102-.01.075-.008.15-.018.216-.027.019 0 .028-.01.047-.01a6.198 6.198 0 0 0 3.397-1.773 6.25 6.25 0 0 0 1.718-3.38c0-.018.01-.027.01-.046l.028-.225c.009-.038.009-.066.009-.103.01-.066.01-.122.019-.188 0-.047.009-.094.009-.14 0-.057.01-.104.01-.16v-.31c0-.047 0-.103-.01-.15 0-.047 0-.094-.01-.141 0-.056-.009-.122-.018-.178 0-.038-.01-.076-.01-.104l-.028-.225c0-.019-.009-.038-.009-.056a6.25 6.25 0 0 0-1.718-3.379 6.167 6.167 0 0 0-3.397-1.774c-.019 0-.028-.009-.047-.009l-.225-.028c-.038 0-.066-.01-.103-.01-.057-.009-.122-.009-.179-.018-.046 0-.093-.01-.14-.01-.057 0-.104-.01-.16-.01h-.394c-.047 0-.085 0-.131.01-.038 0-.085 0-.122.01-.038 0-.085.01-.122.01-.038 0-.085.008-.132.008-.037 0-.075.01-.113.01-.046.01-.093.01-.14.019-.029.009-.066.009-.094.018-.047.01-.094.02-.14.028-.03.01-.057.01-.085.02a.99.99 0 0 0-.16.037c-.028.01-.047.01-.075.019-.056.009-.113.028-.169.037-.019.01-.037.01-.056.019a3.979 3.979 0 0 1-.179.056c-.018.01-.028.01-.046.019a1.487 1.487 0 0 0-.188.066c-.01 0-.019.01-.028.01-.066.027-.132.046-.197.074-.01 0-.01 0-.01.01a6.066 6.066 0 0 0-1.257.685v-6.354h6.316c.638 0 1.22-.347 1.51-.92.301-.572.254-1.257-.121-1.783a4.495 4.495 0 0 1-.826-2.618c0-1.23.478-2.384 1.36-3.248a4.52 4.52 0 0 1 3.267-1.314c2.421.038 4.43 2.037 4.486 4.449a4.519 4.519 0 0 1-.836 2.731 1.723 1.723 0 0 0-.122 1.774 1.7 1.7 0 0 0 1.511.92h6.335v.009ZM25.5 41.341a1.7 1.7 0 0 0-.92 1.511v6.326H5.988a4.284 4.284 0 0 1-4.28-4.28V26.297h6.307s0 .01-.01.01c-.046.065-.093.13-.13.196l-.057.085c-.028.037-.047.075-.075.122-.02.037-.047.075-.066.113-.019.028-.038.065-.056.093-.028.047-.047.094-.075.132-.02.028-.029.056-.038.075-.019.047-.047.103-.066.15-.009.019-.018.047-.037.066-.019.056-.047.103-.066.16-.01.018-.019.046-.028.065a.81.81 0 0 1-.066.16c-.01.018-.019.037-.028.065l-.056.17c-.01.018-.01.037-.019.065-.019.056-.038.112-.047.169-.01.018-.01.047-.019.065-.018.057-.028.113-.037.16-.01.028-.01.047-.019.075a.982.982 0 0 1-.038.16c-.009.028-.009.056-.018.084-.01.047-.02.103-.028.15-.01.028-.01.056-.02.094-.009.047-.009.094-.018.15 0 .038-.01.066-.01.104 0 .046-.009.093-.009.14 0 .038-.01.075-.01.113 0 .047-.009.084-.009.131 0 .038 0 .085-.009.122v.404c0 .056 0 .103.01.16 0 .046.009.093.009.14.01.056.01.122.019.178 0 .038.009.066.009.104l.028.225c0 .01.01.028.01.037a6.2 6.2 0 0 0 1.773 3.398 6.275 6.275 0 0 0 2.816 1.595h.01c.084.02.168.038.253.057.028.009.047.009.075.018.065.01.131.029.197.038.037.01.084.01.122.019.056.01.103.019.16.019.056.009.112.009.168.018.047 0 .085.01.132.01.065 0 .122.009.187.009.038 0 .085 0 .122.01H13.317c.057 0 .104 0 .16-.01.037 0 .084-.01.122-.01.066-.009.131-.009.188-.018.028 0 .047-.01.075-.01.084-.009.16-.018.244-.037h.01a6.27 6.27 0 0 0 3.396-1.718 6.167 6.167 0 0 0 1.774-3.397c0-.019 0-.028.01-.047.01-.075.018-.15.028-.216 0-.037.01-.065.01-.103.009-.056.009-.122.018-.178 0-.047.01-.094.01-.141 0-.047.009-.103.009-.15v-.526c0-.047 0-.084-.01-.131 0-.038-.009-.075-.009-.103 0-.047-.01-.094-.01-.141 0-.028-.009-.066-.009-.094-.01-.047-.01-.103-.018-.15 0-.028-.01-.056-.01-.085l-.028-.16c0-.027-.01-.046-.019-.074-.01-.056-.028-.113-.037-.17-.01-.018-.01-.037-.02-.055a1.235 1.235 0 0 0-.046-.179c0-.019-.01-.028-.01-.047-.018-.065-.037-.122-.056-.187 0-.01-.01-.029-.01-.038-.018-.066-.046-.131-.065-.197 0-.01-.01-.019-.01-.028-.027-.066-.046-.132-.074-.207v-.01a6.068 6.068 0 0 0-.685-1.257h6.306v6.317a1.7 1.7 0 0 0 .92 1.51c.573.291 1.248.244 1.774-.122.103-.065.197-.13.3-.197.019-.009.038-.028.066-.037a.293.293 0 0 1 .094-.047c.028-.019.056-.028.084-.047.028-.01.047-.028.075-.038.028-.018.057-.028.094-.047.019-.009.047-.018.066-.028.028-.009.066-.028.094-.037.018-.01.047-.019.065-.028.029-.01.066-.029.094-.038a.645.645 0 0 1 .075-.028c.028-.01.066-.019.094-.028.028-.01.047-.019.075-.028.028-.01.066-.02.094-.029.028-.009.047-.018.075-.018a.278.278 0 0 1 .094-.019c.028-.01.056-.01.085-.019.028-.01.056-.01.084-.019.028-.009.056-.009.084-.018.029-.01.057-.01.085-.02.028-.008.066-.008.094-.018.028 0 .056-.01.084-.01.028 0 .066-.009.094-.009.028 0 .047-.009.075-.009.038 0 .066-.01.103-.01h.46c.038 0 .085 0 .122.01a.26.26 0 0 1 .085.01c.056 0 .103.009.16.018h.027c2.056.263 3.707 1.934 3.96 3.989v.037c.01.057.01.113.02.16 0 .028 0 .066.009.094 0 .037 0 .084.01.122v.225c0 .047 0 .084-.01.122 0 .028 0 .056-.01.084 0 .057-.009.113-.018.17v.028c-.244 2.055-1.905 3.725-3.951 3.988h-.038c-.056.01-.103.01-.16.019-.027 0-.056.01-.093.01-.038 0-.085 0-.122.009h-.441c-.038 0-.085-.01-.122-.01-.019 0-.038 0-.057-.009a.548.548 0 0 1-.122-.019c-.018 0-.037 0-.046-.01-.047-.009-.085-.009-.122-.018-.02 0-.038-.01-.057-.01-.037-.009-.084-.018-.122-.028-.019 0-.037-.009-.056-.009l-.113-.028c-.018-.01-.037-.01-.056-.019l-.113-.028c-.018-.01-.047-.01-.065-.019a.457.457 0 0 1-.104-.037.174.174 0 0 0-.065-.02c-.028-.008-.066-.018-.094-.037a.645.645 0 0 0-.075-.028c-.028-.01-.066-.028-.094-.037-.028-.01-.047-.02-.075-.028-.028-.01-.056-.029-.085-.038a.283.283 0 0 1-.075-.038c-.028-.018-.056-.028-.084-.047-.019-.009-.047-.028-.066-.037a.293.293 0 0 0-.094-.047c-.018-.01-.037-.028-.065-.038a.624.624 0 0 1-.104-.065l-.056-.028c-.047-.029-.094-.066-.14-.094 0 0-.01 0-.01-.01-.488-.356-1.173-.403-1.746-.103ZM1.71 5.997a4.29 4.29 0 0 1 4.279-4.28h18.591v6.317a6.266 6.266 0 0 0-3.603-1.136c-1.69 0-3.276.666-4.468 1.868a6.181 6.181 0 0 0-1.802 4.495 6.285 6.285 0 0 0 1.821 4.317 6.22 6.22 0 0 0 4.299 1.858 6.256 6.256 0 0 0 3.744-1.135v6.307h-6.316a1.7 1.7 0 0 0-1.511.92 1.723 1.723 0 0 0 .122 1.773c.038.047.066.103.103.15.028.047.066.094.094.15.019.029.028.057.047.085.01.028.028.047.037.075.02.038.038.066.057.103l.028.057.056.112c.01.019.02.028.02.047.018.038.037.075.046.113.01.018.01.028.019.047.018.037.028.084.047.122.01.018.01.028.018.047.02.037.029.084.038.122.01.018.01.028.019.047.01.037.028.084.037.122 0 .018.01.028.02.047.009.037.018.075.027.122 0 .018.01.037.01.056l.028.112c0 .02.01.038.01.057.008.037.008.075.018.112 0 .02.01.047.01.066.009.038.009.066.018.103 0 .028.01.047.01.075 0 .038.009.066.009.104 0 .028 0 .056.01.084 0 .028.009.066.009.094v.385c0 .037 0 .084-.01.122 0 .028 0 .056-.01.093 0 .057-.009.104-.018.16v.038c-.263 2.046-1.924 3.707-3.98 3.95-.018 0-.037 0-.056.01-.046.01-.093.01-.15.01-.037 0-.065 0-.103.009h-.338c-.037 0-.075 0-.122-.01-.028 0-.066 0-.094-.009a.827.827 0 0 1-.16-.019h-.037c-2.055-.244-3.726-1.905-3.988-3.96v-.028c-.01-.057-.01-.104-.02-.16 0-.028 0-.056-.009-.084 0-.038-.009-.085-.009-.122v-.385c0-.028 0-.056.01-.094 0-.028 0-.056.009-.084 0-.029.01-.066.01-.094 0-.028.009-.057.009-.075 0-.038.009-.066.009-.104 0-.028.01-.046.01-.075.009-.037.009-.075.018-.103 0-.019.01-.047.01-.066a.47.47 0 0 0 .018-.112c0-.019.01-.038.02-.056l.027-.113c.01-.019.01-.038.019-.056a.53.53 0 0 1 .038-.113c.009-.019.009-.038.018-.047.01-.037.029-.075.038-.113.01-.018.01-.028.019-.047.018-.037.028-.075.047-.112a.157.157 0 0 0 .018-.047c.02-.038.029-.075.047-.113.01-.018.02-.037.028-.056.02-.038.029-.066.047-.103l.029-.057c.018-.028.028-.065.046-.093.01-.029.029-.047.038-.075.019-.029.028-.057.047-.085.019-.028.037-.066.056-.094a.195.195 0 0 1 .038-.056c.037-.047.065-.103.103-.15.019-.028.028-.047.047-.075a1.71 1.71 0 0 0-1.436-2.628H1.708V5.997Zm42.288 14.847a6.22 6.22 0 0 0-1.858-4.298 6.203 6.203 0 0 0-4.317-1.82 6.196 6.196 0 0 0-4.496 1.801 6.238 6.238 0 0 0-1.867 4.467c0 1.296.394 2.544 1.145 3.604h-6.316v-6.325a1.7 1.7 0 0 0-.92-1.511 1.723 1.723 0 0 0-1.774.122 4.491 4.491 0 0 1-2.731.826c-2.421-.057-4.411-2.065-4.448-4.486a4.52 4.52 0 0 1 1.313-3.266 4.563 4.563 0 0 1 5.866-.535c.526.375 1.21.422 1.783.122a1.7 1.7 0 0 0 .92-1.511V0H5.987A5.992 5.992 0 0 0 0 5.988V44.889a5.992 5.992 0 0 0 5.988 5.987H44.889a5.992 5.992 0 0 0 5.987-5.987v-20.3h-8.024a6.2 6.2 0 0 0 1.145-3.745Z" fill="#000" stroke="#000" stroke-width=".04" mask="url(#aoa)"/></svg><svg fill="none" viewBox="0 0 30 30" id="quote" xmlns="http://www.w3.org/2000/svg"><path d="M20.25 3.163h4.025a4.17 4.17 0 0 1 4.163 4.162v7.25a.944.944 0 0 1-.938.938h-7.25c-2.375 0-4.162-1.788-4.162-4.163V7.325c.012-2.375 1.8-4.162 4.162-4.162Zm6.313 10.462V7.313a2.289 2.289 0 0 0-2.288-2.288H20.25c-1.325 0-2.287.963-2.287 2.288v4.025c0 1.325.962 2.287 2.287 2.287h6.313Z" fill="#fff"/><path d="M27.5 13.626c.513 0 .938.425.938.937 0 7.812-1.588 9.45-6.125 12.137a.947.947 0 0 1-1.288-.325.947.947 0 0 1 .325-1.287c4.05-2.4 5.213-3.4 5.213-10.525 0-.513.425-.938.937-.938ZM5.725 3.163H9.75a4.169 4.169 0 0 1 4.162 4.162v7.25a.944.944 0 0 1-.937.938h-7.25c-2.375 0-4.163-1.788-4.163-4.163V7.325c0-2.375 1.788-4.162 4.163-4.162Zm6.3 10.462V7.313a2.289 2.289 0 0 0-2.288-2.288H5.712c-1.325 0-2.287.963-2.287 2.288v4.025c0 1.325.962 2.287 2.287 2.287h6.313Z" fill="#fff"/><path d="M12.963 13.626c.512 0 .937.425.937.937 0 7.812-1.587 9.45-6.125 12.137a.947.947 0 0 1-1.287-.325.947.947 0 0 1 .325-1.287c4.05-2.4 5.212-3.4 5.212-10.525 0-.513.425-.938.938-.938Z" fill="#fff"/></svg><svg fill="none" viewBox="0 0 63 43" id="roulet" xmlns="http://www.w3.org/2000/svg"><g clip-path="url(#aqa)"><path d="M44.602 42.218h-25.83c-9.498 0-17.197-7.525-17.197-16.8v-7.837c0-9.282 7.7-16.8 17.197-16.8h8.641c9.497 0 17.197 7.526 17.197 16.8v24.637h-.008Zm0 0h16.823v-6.513H44.602v6.513Zm16.823-6.125v-2.572m-8.415 2.572v1.925M37.199 21.492c0 7.64-6.322 13.833-14.114 13.833-7.793 0-14.114-6.194-14.114-13.833S15.29 7.66 23.085 7.66c7.8 0 14.114 6.193 14.114 13.832Zm-14.107 8.301c-4.67 0-8.47-3.728-8.47-8.3 0-4.581 3.8-8.302 8.47-8.302 4.671 0 8.47 3.729 8.47 8.301 0 4.58-3.806 8.301-8.47 8.301Zm26.547.069h-5.037v-9.245h5.037v9.245Z" stroke="#000" stroke-width="1.6" stroke-miterlimit="10" stroke-linecap="round" stroke-linejoin="round"/></g><defs><clipPath id="aqa"><path fill="#fff" d="M0 0h63v43H0z"/></clipPath></defs></svg><svg fill="none" viewBox="0 0 17 16" id="search" xmlns="http://www.w3.org/2000/svg"><path d="M8.167 14a6.333 6.333 0 1 0 0-12.667 6.333 6.333 0 0 0 0 12.667ZM15.167 14.667 12.9 12.4" stroke="#111" stroke-width="1.5" stroke-linecap="round" stroke-linejoin="round"/></svg><svg fill="none" viewBox="0 0 44 44" id="shield" xmlns="http://www.w3.org/2000/svg"><path d="m18.995 2.465-9.864 3.76C6.858 7.086 5 9.807 5 12.247v14.862c0 2.36 1.542 5.46 3.42 6.881l8.5 6.42c2.787 2.121 7.373 2.121 10.16 0l8.5-6.42c1.878-1.42 3.42-4.52 3.42-6.88V12.245c0-2.46-1.858-5.18-4.131-6.04l-9.864-3.74c-1.68-.621-4.369-.621-6.01 0Z" stroke="#fff" stroke-width="1.5" stroke-linecap="round" stroke-linejoin="round"/><path d="M16 21.63 19.269 25 28 16" stroke="#fff" stroke-width="1.5" stroke-linecap="round" stroke-linejoin="round"/></svg><svg fill="none" viewBox="0 0 18 18" id="sizer" xmlns="http://www.w3.org/2000/svg"><path d="M11.7 17.4H6.3c-2.19 0-3.568-.442-4.413-1.287C1.042 15.268.6 13.891.6 11.7V6.3c0-2.19.442-3.568 1.287-4.413C2.732 1.042 4.109.6 6.3.6h5.4c2.19 0 3.568.442 4.413 1.287.845.845 1.287 2.222 1.287 4.413v5.4c0 2.19-.442 3.568-1.287 4.413-.845.845-2.222 1.287-4.413 1.287ZM13.5 4.5l-9 9" stroke="currentColor" stroke-width="1.2" stroke-linecap="round" stroke-linejoin="round"/><path d="M13.5 7.5v-3h-3M4.5 10.5v3h3" stroke="currentColor" stroke-width="1.2" stroke-linecap="round" stroke-linejoin="round"/></svg><svg fill="none" viewBox="0 0 17 12" id="slider-arrow-left" xmlns="http://www.w3.org/2000/svg"><path d="M.444 6.556a.786.786 0 0 1 0-1.112l5-5a.786.786 0 0 1 1.112 1.111L2.11 6l4.445 4.445a.786.786 0 1 1-1.111 1.11l-5-5ZM17 6.786H1V5.214h16v1.572Z" fill="currentColor"/></svg><svg fill="none" viewBox="0 0 17 12" id="slider-arrow-right" xmlns="http://www.w3.org/2000/svg"><path d="M16.556 6.556a.786.786 0 0 0 0-1.112l-5-5a.786.786 0 1 0-1.112 1.111L14.89 6l-4.445 4.445a.786.786 0 1 0 1.111 1.11l5-5ZM0 6.786h16V5.214H0v1.572Z" fill="currentColor"/></svg><svg fill="none" viewBox="0 0 16 16" id="sun" xmlns="http://www.w3.org/2000/svg"><path d="M8 12.667a4.667 4.667 0 1 0 0-9.334 4.667 4.667 0 0 0 0 9.334ZM13.236 13.236l-.095-.095m0-10.282.095-.095-.095.095ZM2.764 13.236l.095-.095-.095.095ZM8 .726v-.06.06Zm0 14.607v-.058.058ZM.725 8H.667h.058Zm14.608 0h-.058.058ZM2.86 2.86l-.095-.096.095.095Z" stroke="#111" stroke-width="1.2" stroke-linecap="round" stroke-linejoin="round"/></svg><svg fill="none" viewBox="0 0 30 24" id="tg" xmlns="http://www.w3.org/2000/svg"><path d="M14.235 5.287C7.01 8.225.733 11.045.141 11.632c-.592.588.71 1.646 3.316 2.468 4.264 1.41 4.738 1.292 11.37-3.29 7.462-5.17 9.475-4.818 3.198.352-2.132 1.763-4.264 3.878-4.738 4.7-1.302 2.115 10.541 9.635 12.318 7.873 1.303-1.293 4.264-15.863 4.382-21.15C30.106 1.175 29.395 0 28.684 0c-.829.117-7.343 2.467-14.449 5.287Z" fill="currentColor"/></svg><svg fill="none" viewBox="0 0 30 30" id="vk" xmlns="http://www.w3.org/2000/svg"><path fill-rule="evenodd" clip-rule="evenodd" d="M2.109 2.109C0 4.218 0 7.612 0 14.4v1.2c0 6.788 0 10.182 2.109 12.291S7.612 30 14.4 30h1.2c6.788 0 10.182 0 12.291-2.109S30 22.388 30 15.6v-1.2c0-6.788 0-10.182-2.109-12.291S22.388 0 15.6 0h-1.2C7.612 0 4.218 0 2.109 2.109Zm2.954 7.016c.162 7.8 4.062 12.488 10.9 12.488h.387V17.15c2.513.25 4.412 2.088 5.175 4.463h3.55c-.975-3.55-3.538-5.513-5.138-6.263 1.6-.925 3.85-3.175 4.388-6.225H21.1c-.7 2.475-2.775 4.725-4.75 4.938V9.125h-3.225v8.65c-2-.5-4.525-2.925-4.637-8.65H5.063Z" fill="currentColor"/></svg><svg fill="none" viewBox="0 0 18 18" id="volume-slash" xmlns="http://www.w3.org/2000/svg"><path d="M11.133 6.282v-.718c0-2.228-1.528-3.08-3.39-1.899L5.588 5.033c-.236.142-.51.225-.782.225H3.749c-1.477 0-2.216.747-2.216 2.242v2.99c0 1.496.739 2.243 2.216 2.243h1.477M7.933 14.345c1.757 1.162 3.2.316 3.2-1.868V9.8M14.183 7.133c.723 1.569.506 3.4-.65 4.8M15.84 5.8a8.18 8.18 0 0 1-.973 8M16.467 1.533 1.533 16.467" stroke="#111" stroke-width="1.2" stroke-linecap="round" stroke-linejoin="round"/></svg><svg fill="none" viewBox="0 0 30 30" id="whatsapp" xmlns="http://www.w3.org/2000/svg"><path d="M22.198 17.238c-.058-.028-2.245-1.105-2.634-1.245a1.512 1.512 0 0 0-.51-.112c-.294 0-.542.147-.736.436-.218.325-.88 1.098-1.084 1.329-.027.03-.063.067-.085.067-.02 0-.358-.14-.46-.184-2.347-1.02-4.127-3.47-4.372-3.883-.034-.06-.036-.087-.036-.087.008-.031.087-.11.128-.151.12-.118.248-.273.373-.424.06-.07.118-.142.177-.21.18-.21.261-.374.355-.563l.049-.099c.228-.453.033-.836-.03-.96-.052-.103-.975-2.332-1.073-2.566-.236-.565-.548-.828-.982-.828-.04 0 0 0-.168.007-.206.009-1.325.156-1.82.468-.524.33-1.411 1.384-1.411 3.238 0 1.669 1.059 3.244 1.513 3.843.012.015.032.046.062.09 1.741 2.542 3.912 4.426 6.111 5.305 2.119.846 3.121.944 3.692.944.24 0 .431-.019.6-.035l.108-.01c.731-.066 2.34-.899 2.705-1.915.288-.8.364-1.675.172-1.993-.13-.216-.357-.324-.643-.462Z" fill="currentColor"/><path d="M15.266 0C7.141 0 .531 6.56.531 14.624c0 2.609.698 5.161 2.02 7.396l-2.53 7.465a.39.39 0 0 0 .487.497l7.784-2.474a14.836 14.836 0 0 0 6.974 1.739C23.39 29.247 30 22.687 30 14.624 30 6.56 23.39 0 15.266 0Zm0 26.2c-2.293 0-4.513-.661-6.422-1.914a.39.39 0 0 0-.332-.045l-3.9 1.24 1.26-3.715a.39.39 0 0 0-.055-.355 11.42 11.42 0 0 1-2.222-6.787c0-6.384 5.236-11.578 11.671-11.578s11.67 5.194 11.67 11.578c0 6.384-5.235 11.577-11.67 11.577Z" fill="currentColor"/></svg><svg fill="none" viewBox="0 0 30 20" id="youtube" xmlns="http://www.w3.org/2000/svg"><path d="M12.484.006C7.391.098 4.333.3 3.173.618 1.99.945.999 1.898.653 3.03.2 4.527-.082 8.19.021 11.272c.093 2.762.3 4.602.632 5.704.346 1.133 1.338 2.085 2.52 2.412C4.593 19.779 8.854 20 15 20s10.407-.221 11.827-.612c1.182-.327 2.174-1.28 2.52-2.412.453-1.497.735-5.16.632-8.242-.093-2.762-.3-4.602-.632-5.704-.346-1.133-1.338-2.085-2.52-2.412-.995-.272-3.172-.445-7.152-.564-1.153-.034-6.099-.068-7.191-.048Zm3.383 7.844a543.798 543.798 0 0 1 3.872 2.136c.022.017-7.676 4.286-7.737 4.286-.01 0-.018-1.922-.018-4.269 0-2.347.007-4.269.018-4.269.01 0 1.749.953 3.865 2.116Z" fill="currentColor"/></svg><svg fill="none" viewBox="0 0 18 13" id="yt" xmlns="http://www.w3.org/2000/svg"><path d="M17.623 2.03A2.292 2.292 0 0 0 16.032.388C14.629 0 9 0 9 0S3.371 0 1.967.388A2.291 2.291 0 0 0 .377 2.03C0 3.478 0 6.5 0 6.5s0 3.022.377 4.47a2.292 2.292 0 0 0 1.591 1.643C3.371 13 9 13 9 13s5.629 0 7.033-.387a2.294 2.294 0 0 0 1.591-1.643C18 9.522 18 6.5 18 6.5s0-3.022-.377-4.47ZM7.16 9.244V3.756L11.864 6.5 7.159 9.244Z" fill="currentColor"/></svg></svg>