<svg width="17" height="17" viewBox="0 0 17 17" fill="none" xmlns="http://www.w3.org/2000/svg">
<path d="M7.5918 12.5332H9.0918V7.5332H7.5918V12.5332ZM8.33742 6.0332C8.54867 6.0332 8.72721 5.96175 8.87305 5.81883C9.01888 5.67591 9.0918 5.49883 9.0918 5.28758C9.0918 5.07633 9.02034 4.89779 8.87742 4.75195C8.73451 4.60612 8.55742 4.5332 8.34617 4.5332C8.13492 4.5332 7.95638 4.60466 7.81055 4.74758C7.66471 4.89049 7.5918 5.06758 7.5918 5.27883C7.5918 5.49008 7.66326 5.66862 7.80617 5.81445C7.94909 5.96029 8.12617 6.0332 8.33742 6.0332ZM8.34763 16.5332C7.24652 16.5332 6.20985 16.3249 5.23763 15.9082C4.26541 15.4915 3.41471 14.9186 2.68555 14.1895C1.95638 13.4603 1.38346 12.6099 0.966797 11.6382C0.55013 10.6665 0.341797 9.62834 0.341797 8.52362C0.341797 7.4189 0.55013 6.3839 0.966797 5.41862C1.38346 4.45334 1.95638 3.60612 2.68555 2.87695C3.41471 2.14779 4.26513 1.57487 5.2368 1.1582C6.20846 0.741536 7.24666 0.533203 8.35138 0.533203C9.4561 0.533203 10.4911 0.741536 11.4564 1.1582C12.4217 1.57487 13.2689 2.14779 13.998 2.87695C14.7272 3.60612 15.3001 4.45487 15.7168 5.4232C16.1335 6.39167 16.3418 7.4264 16.3418 8.52737C16.3418 9.62848 16.1335 10.6651 15.7168 11.6374C15.3001 12.6096 14.7272 13.4603 13.998 14.1895C13.2689 14.9186 12.4201 15.4915 11.4518 15.9082C10.4833 16.3249 9.4486 16.5332 8.34763 16.5332Z" fill="#C9C9C9"/>
</svg>
