<svg width="33" height="33" viewBox="0 0 33 33" fill="none" xmlns="http://www.w3.org/2000/svg">
<path d="M25.2337 16.6608C25.2337 14.2386 24.3726 12.1664 22.6503 10.4441C20.9281 8.72193 18.8559 7.86082 16.4337 7.86082V5.46082C17.9892 5.46082 19.4448 5.75526 20.8003 6.34415C22.1559 6.93304 23.3392 7.73304 24.3503 8.74415C25.3614 9.75526 26.1614 10.9386 26.7503 12.2941C27.3392 13.6497 27.6337 15.1053 27.6337 16.6608H25.2337ZM20.4337 16.6608C20.4337 15.5497 20.0448 14.6053 19.267 13.8275C18.4892 13.0497 17.5448 12.6608 16.4337 12.6608V10.2608C18.2114 10.2608 19.7226 10.883 20.967 12.1275C22.2114 13.3719 22.8337 14.883 22.8337 16.6608H20.4337ZM25.867 27.8608C23.1781 27.6608 20.6281 26.9997 18.217 25.8775C15.8059 24.7553 13.6448 23.2386 11.7337 21.3275C9.82256 19.4164 8.31144 17.2553 7.20033 14.8441C6.08922 12.433 5.43367 9.88304 5.23367 7.19415C5.18922 6.72748 5.32811 6.32193 5.65033 5.97748C5.97256 5.63304 6.367 5.46082 6.83367 5.46082H11.367C11.7448 5.46082 12.0726 5.57748 12.3503 5.81082C12.6281 6.04415 12.8114 6.33859 12.9003 6.69415L13.7003 10.2608C13.7448 10.5497 13.7281 10.8275 13.6503 11.0941C13.5726 11.3608 13.4448 11.583 13.267 11.7608L10.0337 15.0275C10.4781 15.8719 10.9892 16.683 11.567 17.4608C12.1448 18.2386 12.7892 18.9719 13.5003 19.6608C14.167 20.3275 14.8781 20.9441 15.6337 21.5108C16.3892 22.0775 17.1892 22.583 18.0337 23.0275L21.3337 19.8275C21.5114 19.6497 21.7337 19.5219 22.0003 19.4441C22.267 19.3664 22.5448 19.3497 22.8337 19.3941L26.4003 20.1608C26.7781 20.2719 27.0781 20.4664 27.3003 20.7441C27.5226 21.0219 27.6337 21.3497 27.6337 21.7275V26.2608C27.6337 26.7275 27.4559 27.1219 27.1003 27.4441C26.7448 27.7664 26.3337 27.9053 25.867 27.8608Z" fill="#FF9263"/>
</svg>
